# Rhino

g 1
o object_1
v 0.34933034872185531 0.008155889529548311 0.00066965127814466729
v 0.30165848482049518 0.16902780495813646 0.01077766130616753
v 0.27513170122854247 0.4599999999999998 0.074868298771457675
v 0.30136825853718879 0.16225644189765778 0.0085897917293655257
v 0.30009920395186174 0.15559873287339146 0.005683825221406924
v 0.2978781473239826 0.14919541369908076 0.0021211903547507793
v 0.2967831484295092 0.14708900756643334 0.00066965127814466729
v 0.30096374777365015 0.17576968373397323 0.012201185068881293
v 0.27749080716083047 0.30818451868944935 0.032618926412608662
v 0.27623685485303529 0.31345481255539837 0.033186268855342205
v 0.27437992462127009 0.31854403685169758 0.033238380424255809
v 0.27194509547930523 0.32338345839493227 0.03277455731974932
v 0.26896525133012 0.32790771774539518 0.031801063765338922
v 0.26548063684805517 0.33205571192753525 0.03033104740536724
v 0.26153831394910843 0.33577141966417479 0.028384361737776087
v 0.26010494060801481 0.33683759493268467 0.027593918891786473
v 0.24580380495044754 0.4599999999999998 0.052364212456627868
v 0.35066965127814465 0 0.00066965127814466729
v 0.3506696512781447 0.054793255679330438 0.050833848064748666
v 0.35066965127814465 0 0.050833848064748666
v 0.35066965127814459 0 0.30083384806474861
v 0.35066965127814465 0.0017705365757342351 0.34999999999999998
v 0.35066965127814465 0 0.34999999999999998
v 0.35066965127814465 0.054793255679330438 0.30083384806474861
v 0.35066965127814465 0.13888764113506472 0.29813965123223651
v 0.35066965127814465 0.058083396033771842 0.30061820087277041
v 0.35066965127814465 0.061317241174549522 0.2999749490800791
v 0.35066965127814465 0.064439459114713493 0.29891509890319079
v 0.35066965127814465 0.067396627839665213 0.29745678467247805
v 0.35066965127814465 0.13766464681845283 0.29725743741706934
v 0.35066965127814465 0.070138149372638681 0.29562495854874937
v 0.35066965127814465 0.13280100479049617 0.29253720699724556
v 0.35066965127814465 0.072617115520111367 0.29345096358486
v 0.35066965127814465 0.07479111048400075 0.29097199743738733
v 0.35066965127814465 0.12867323547121584 0.28716160382744721
v 0.35066965127814465 0.076622936607729383 0.28823047590441386
v 0.35066965127814465 0.078081250838442154 0.28527330717946209
v 0.35066965127814465 0.1253685948479159 0.28124426157410637
v 0.35066965127814465 0.079141101015330451 0.28215108923929816
v 0.35066965127814465 0.07978435280802175 0.27891724409852048
v 0.35066965127814465 0.12295693897551785 0.27491026560430454
v 0.35066965127814465 0.079999999999999988 0.27562710374407906
v 0.35066965127814465 0.12148924730512627 0.26829350883433012
v 0.3506696512781447 0.080000000000000002 0.076040592385418215
v 0.35066965127814465 0.1209965450408774 0.26153386139743356
v 0.35066965127814465 0.12099654504087737 0.10207674213583717
v 0.35066965127814465 0.12148924730512624 0.09531709469894073
v 0.35066965127814465 0.12295693897551781 0.088700337928966422
v 0.35066965127814465 0.12536859484791588 0.082366341959164535
v 0.35066965127814465 0.12867323547121576 0.076448999705823695
v 0.35066965127814465 0.13280100479049609 0.071073396536025346
v 0.3506696512781447 0.07978435280802175 0.072750452030976798
v 0.3506696512781447 0.079141101015330464 0.069516606890199117
v 0.35066965127814465 0.13766464681845283 0.066353166116201567
v 0.3506696512781447 0.078081250838442168 0.066394388950035188
v 0.3506696512781447 0.076622936607729397 0.063437220225083468
v 0.35066965127814465 0.14316135012009132 0.062388088335615877
v 0.3506696512781447 0.07479111048400075 0.060695698692110001
v 0.35066965127814465 0.14917492112052813 0.059261980081725063
v 0.3506696512781447 0.07261711552011138 0.058216732544637273
v 0.35066965127814465 0.15401684803926366 0.057582508298136825
v 0.3506696512781447 0.070138149372638695 0.056042737580747903
v 0.35066965127814465 0.0035410731514682729 0.00066965127814466729
v 0.3506696512781447 0.067396627839665213 0.054210911457019284
v 0.3506696512781447 0.064439459114713493 0.052752597226306486
v 0.3506696512781447 0.061317241174549522 0.051692747049418231
v 0.3506696512781447 0.058083396033771842 0.051049495256726918
v 0.21165074637380013 0.4599999999999998 0.038217552397657673
v 0.23159044465705078 0.34666381471417201 0.018231677216574094
v 0.21846294311754727 0.34666381471417201 0.012794088038838025
v 0.25719152619007996 0.33900465797918461 0.026927209488454285
v 0.25249897968076462 0.34171175995022235 0.025658145678871869
v 0.24752405022091609 0.34385616445805589 0.024131881920191389
v 0.24233392737010803 0.34540890996753348 0.022369031366944347
v 0.23699870701036022 0.34634902567137965 0.020393402427515306
v 0.35066965127814465 0 0.35066965127814465
v 0.2978781473239826 0.1491954136990809 0.34787880964524892
v 0.2957728175041226 0.14514547386244614 0.35066965127814453
v 0.30009920395186179 0.1555987328733914 0.34431617477859283
v 0.30136825853718885 0.16225644189765778 0.34141020827063423
v 0.30165848482049518 0.16902780495813649 0.33922233869383228
v 0.27513170122854247 0.4599999999999998 0.27513170122854247
v 0.3009637477736502 0.17576968373397328 0.33779881493111852
v 0.27749080716083052 0.30818451868944929 0.3173810735873912
v 0.27623685485303534 0.31345481255539831 0.31681373114465766
v 0.27437992462127009 0.31854403685169752 0.31676161957574422
v 0.27194509547930529 0.32338345839493216 0.31722544268025049
v 0.26896525133012006 0.32790771774539512 0.31819893623466083
v 0.26548063684805528 0.3320557119275353 0.31966895259463252
v 0.2615383139491082 0.33577141966417495 0.32161563826222378
v 0.26010494060801481 0.33683759493268456 0.32240608110821339
v 0.24580380495044754 0.4599999999999998 0.29763578754337205
v 0.33721050883672449 0.3466433221356191 0.13153582515335813
v 0.31660760990089598 0.4599999999999998 0.17500000000000043
v 0.3429326760108603 0.3466433221356191 0.17500000000000043
v 0.3117824476023428 0.4599999999999998 0.13834925362619982
v 0.30266733854080036 0.054793255679330438 0.00066965127814461178
v 0.30266733854080036 0 0.00066965127814466729
v 0.30245169134882216 0.058083396033771842 0.00066965127814461178
v 0.30180843955613085 0.061317241174549522 0.00066965127814461178
v 0.30074858937924254 0.064439459114713493 0.00066965127814461178
v 0.29929027514852979 0.067396627839665213 0.00066965127814461178
v 0.29745844902480112 0.070138149372638681 0.00066965127814461178
v 0.29528445406091175 0.072617115520111367 0.00066965127814461178
v 0.29280548791343902 0.07479111048400075 0.00066965127814461178
v 0.29006396638046561 0.076622936607729383 0.00066965127814461178
v 0.28710679765551383 0.078081250838442154 0.00066965127814461178
v 0.28398457971534991 0.079141101015330451 0.00066965127814461178
v 0.28075073457457222 0.07978435280802175 0.00066965127814461178
v 0.27746059422013081 0.079999999999999988 0.00066965127814461178
v 0.2947520390700919 0.14318184269864415 0.00066965127814466729
v 0.29078696128950626 0.13768513939700563 0.00066965127814466729
v 0.28606673086968237 0.13282149736904891 0.00066965127814466729
v 0.28069112769988402 0.12869372804976861 0.00066965127814466729
v 0.27477378544654324 0.12538908742646873 0.00066965127814466729
v 0.26843978947674141 0.12297743155407068 0.00066965127814466729
v 0.07787408286146999 0.080000000000000002 0.00066965127814461178
v 0.26182303270676704 0.12150973988367909 0.00066965127814466729
v 0.25506338526987049 0.12101703761943021 0.00066965127814466729
v 0 0.0058484813405081494 0.00066965127814466729
v 0.052667338540800426 0 0.00066965127814466729
v 0 0 0.00066965127814466729
v 0.052667338540800426 0.054793255679330438 0.00066965127814461178
v 0.00066965127814449339 0.008155889529547591 0.00066965127814466729
v 0.053498875755716047 0.14783467049799129 0.00066965127814466729
v 0.052882985732778692 0.058083396033771842 0.00066965127814461178
v 0.053526237525469977 0.061317241174549522 0.00066965127814461178
v 0.05458608770235826 0.064439459114713493 0.00066965127814461178
v 0.05604440193307101 0.067396627839665213 0.00066965127814461178
v 0.057876228056799671 0.070138149372638695 0.00066965127814461178
v 0.060050223020689027 0.07261711552011138 0.00066965127814461178
v 0.062529189168161747 0.07479111048400075 0.00066965127814461178
v 0.065270710701135215 0.076622936607729397 0.00066965127814461178
v 0.068227879426086935 0.078081250838442168 0.00066965127814461178
v 0.071350097366250892 0.079141101015330464 0.00066965127814461178
v 0.074583942507028586 0.07978435280802175 0.00066965127814461178
v 0.055917612208052664 0.1431818426986442 0.00066965127814466729
v 0.059882689988638389 0.13768513939700566 0.00066965127814466729
v 0.064602920408462217 0.13282149736904891 0.00066965127814466729
v 0.069978523578260579 0.12869372804976864 0.00066965127814466729
v 0.075895865831601461 0.12538908742646873 0.00066965127814466729
v 0.082229861801403251 0.1229774315540707 0.00066965127814466729
v 0.088846618571377572 0.12150973988367914 0.00066965127814466729
v 0.095606266008274085 0.12101703761943022 0.00066965127814466729
v 0 0.004077944764774584 0
v 0 0 -0.001183492776399675
v -0.00066965127814475316 0 -0.00066965127814461178
v 0.29763578754337239 0.4599999999999998 0.10419619504955235
v 0.33473096746640035 0.3466433221356191 0.12554968274865697
v 0.33256924225545909 0.34632853309282685 0.12014142039534756
v 0.3305936133160301 0.34538841738898063 0.11480620003559988
v 0.32883076276278284 0.34383567187950292 0.10961607718479158
v 0.32730449900410236 0.34169126737166944 0.1046411477249431
v 0.32603543519452 0.3389841654006317 0.099948601215627708
v 0.32504071084106273 0.33575092708562193 0.095601813456599405
v 0.32433376032340266 0.33203521934898239 0.091659490557652434
v 0.3240170119360688 0.32882775384475482 0.088964988044877014
v -0.00066965127814464041 0 0.35066965127814465
v 0.049011166457649358 0.16902780495813652 0.33973618019208729
v 0.074868298771457675 0.4599999999999998 0.27513170122854247
v 0.049301392740955817 0.16225644189765778 0.34192404976888935
v 0.050570447326282894 0.1555987328733914 0.34483001627684795
v 0.05279150395416201 0.14919541369908101 0.34839265114350404
v 0.054509206681102554 0.1458911367940042 0.35066965127814453
v 0.049705903504494393 0.17576968373397331 0.33831265642937342
v 0.073314620894123078 0.3089504584917307 0.31777681079035991
v 0.074370878494827111 0.31354386648687926 0.31725421629439043
v 0.07588557737310575 0.31800713484505372 0.31712116502197285
v 0.077843232762557682 0.32229463557451016 0.31737901715624495
v 0.080223831552435634 0.32636253755594624 0.31802513667487747
v 0.083003036881674347 0.33016925462802715 0.31905291829813021
v 0.086152436934617299 0.33367587072270627 0.32045185501462542
v 0.089639835395004419 0.33684653770418332 0.32220764549452408
v 0.089920167477640908 0.33705382756553576 0.3223625926281769
v 0.10419619504955233 0.4599999999999998 0.29763578754337205
v 0.13834925362620001 0.4599999999999998 0.31178244760234319
v 0.15118667998184557 0.4599999999999998 0.18180530176663531
v 0.15033482563907224 0.4599999999999998 0.17533482563907232
v 0.17500000000000041 0.4599999999999998 0.31660760990089615
v 0.15368419054446131 0.4599999999999998 0.18783482563907236
v 0.15765715610940864 0.4599999999999998 0.19301249516873606
v 0.16283482563907228 0.4599999999999998 0.19698546073368328
v 0.16886434951150933 0.4599999999999998 0.19948297129629908
v 0.17533482563907238 0.4599999999999998 0.2003348256390724
v 0.21165074637380013 0.4599999999999998 0.31178244760234319
v 0.18180530176663542 0.4599999999999998 0.19948297129629905
v 0.18783482563907247 0.4599999999999998 0.19698546073368328
v 0.19301249516873611 0.4599999999999998 0.19301249516873609
v 0.19698546073368325 0.4599999999999998 0.18783482563907244
v 0.19948297129629911 0.4599999999999998 0.1818053017666354
v 0.20033482563907234 0.4599999999999998 0.17533482563907232
v 0.038217552397657679 0.4599999999999998 0.21165074637380002
v 0.03821755239765761 0.4599999999999998 0.13834925362619996
v 0.033392390099104656 0.4599999999999998 0.17500000000000043
v 0.052364212456627791 0.4599999999999998 0.10419619504955244
v 0.052364212456627882 0.4599999999999998 0.24580380495044735
v 0.074868298771457578 0.4599999999999998 0.074868298771457786
v 0.10419619504955227 0.4599999999999998 0.052364212456627923
v 0.13834925362619985 0.4599999999999998 0.038217552397657784
v 0.15118667998184557 0.4599999999999998 0.16886434951150928
v 0.17500000000000041 0.4599999999999998 0.033392390099104774
v 0.15368419054446128 0.4599999999999998 0.16283482563907228
v 0.15765715610940856 0.4599999999999998 0.15765715610940853
v 0.16283482563907237 0.4599999999999998 0.15368419054446125
v 0.16886434951150933 0.4599999999999998 0.15118667998184554
v 0.17533482563907232 0.4599999999999998 0.15033482563907219
v 0.18180530176663542 0.4599999999999998 0.15118667998184554
v 0.18783482563907239 0.4599999999999998 0.15368419054446125
v 0.1930124951687362 0.4599999999999998 0.1576571561094085
v 0.19698546073368339 0.4599999999999998 0.16283482563907217
v 0.19948297129629902 0.4599999999999998 0.16886434951150925
v 0.2976357875433725 0.4599999999999998 0.24580380495044735
v 0.3117824476023428 0.4599999999999998 0.21165074637380002
v -0.00066965127814457275 0.13888764113506472 0.2981396512322364
v -0.00066965127814461872 0.054793255679330438 0.30083384806474861
v -0.00066965127814461851 0.058083396033771842 0.30061820087277041
v -0.00066965127814461829 0.061317241174549522 0.2999749490800791
v -0.00066965127814461807 0.064439459114713493 0.29891509890319079
v -0.00066965127814461785 0.067396627839665213 0.29745678467247805
v -0.00066965127814462913 0.13766464681845278 0.29725743741706923
v -0.00066965127814461785 0.070138149372638681 0.29562495854874937
v -0.00066965127814462913 0.13280100479049614 0.29253720699724539
v -0.00066965127814461764 0.072617115520111367 0.29345096358486
v -0.00066965127814461742 0.07479111048400075 0.29097199743738733
v -0.00066965127814462913 0.12867323547121587 0.2871616038274471
v -0.0006696512781446172 0.076622936607729383 0.28823047590441386
v -0.0006696512781446172 0.078081250838442154 0.28527330717946209
v -0.00066965127814462913 0.1253685948479159 0.2812442615741062
v -0.0006696512781446172 0.079141101015330451 0.28215108923929816
v -0.0006696512781446172 0.07978435280802175 0.27891724409852048
v -0.00066965127814462913 0.12295693897551785 0.27491026560430432
v -0.00066965127814461699 0.079999999999999988 0.27562710374407906
v -0.00066965127814462913 0.12148924730512628 0.26829350883432995
v -0.00066965127814456885 0.080000000000000002 0.076040592385418215
v -0.00066965127814462913 0.1209965450408774 0.26153386139743351
v -0.00066965127814461785 0.12099654504087737 0.10207674213583703
v -0.00066965127814461785 0.12148924730512627 0.095317094698940563
v -0.00066965127814461785 0.12295693897551782 0.088700337928966255
v -0.00066965127814461785 0.12536859484791588 0.082366341959164424
v -0.00066965127814461785 0.12867323547121576 0.076448999705823528
v -0.00066965127814461785 0.13280100479049606 0.071073396536025124
v -0.00066965127814456863 0.07978435280802175 0.072750452030976798
v -0.00066965127814456863 0.079141101015330464 0.069516606890199117
v -0.00066965127814461785 0.13766464681845281 0.066353166116201345
v -0.00066965127814456863 0.078081250838442168 0.066394388950035188
v -0.00066965127814456885 0.076622936607729397 0.063437220225083468
v -0.00066965127814461785 0.14316135012009132 0.062388088335615655
v -0.00066965127814456885 0.07479111048400075 0.060695698692110001
v -0.00066965127814461785 0.14917492112052805 0.059261980081724952
v -0.00066965127814456885 0.07261711552011138 0.058216732544637273
v -0.0006696512781445953 0.15401684803926319 0.057582508298136825
v -0.00066965127814456907 0.070138149372638695 0.056042737580747903
v -0.00066965127814461785 0.0035410731514683865 0.00066965127814466729
v -0.00066965127814456907 0.067396627839665213 0.054210911457019284
v -0.00066965127814456907 0.064439459114713493 0.052752597226306486
v -0.00066965127814456928 0.061317241174549522 0.051692747049418231
v -0.0006696512781445695 0.058083396033771842 0.051049495256726918
v -0.00066965127814456972 0.054793255679330438 0.050833848064748666
v -0.00066965127814461785 0 0.050833848064748666
v -0.00066965127814461785 0 0.00066965127814466729
v -0.00066965127814466686 0 0.30083384806474861
v 0.35118349277639965 0 0.34999999999999998
v 0.027426785743047962 0.34401733584456407 0.25538168131197675
v 0.028654288847866746 0.34210994722475957 0.25949273572843112
v 0.025966133547675456 0.34555914967395812 0.25092770699184097
v 0.024336370470118052 0.34664332213561916 0.24634080747230541
v 0.012789491163275823 0.3466433221356191 0.2184641748466418
v 0.093429580588907921 0.33964884184439115 0.026830479437382926
v 0.089920167477640811 0.33705382756553565 0.027637407371823075
v 0.097482929951789254 0.34205413518853223 0.025750964275007671
v 0.1017584460937308 0.34403782842311686 0.024474355208990384
v 0.10621242041386661 0.34557964225251098 0.023013703013617937
v 0.11079931993340229 0.34666381471417201 0.02138393993606047
v 0.13153705688245271 0.34666381471417201 0.012794088038838081
v 0.34980093454877181 0.15557824029483852 0.057040923453845982
v 0.34689496804081316 0.1622359493191049 0.055771868868518926
v 0.3447070984640111 0.16900731237958364 0.055481642585212487
v 0.32368369600483976 0.32788722516684232 0.088174876075587716
v 0.32271020245042936 0.32336296581637936 0.085195031926402431
v 0.32224637934592298 0.31852354427314455 0.082760202784437575
v 0.32229849091483653 0.3134343199768454 0.080903272552672434
v 0.32286583335756996 0.30816402611089638 0.079649320244877198
v 0.34328357470129739 0.17574919115542034 0.056176379632057571
v 0.0070673239891400992 0.3466433221356191 0.17500000000000035
v 0.25719152619008007 0.3390046579791845 0.32307279051154558
v 0.25249897968076468 0.3417117599502224 0.32434185432112811
v 0.24752405022091617 0.343856164458056 0.3258681180798087
v 0.24233392737010789 0.34540890996753354 0.32763096863305591
v 0.23699870701036016 0.34634902567137965 0.32960659757248489
v 0.23159044465705081 0.34666381471417201 0.33176832278342633
v 0.21846294311754741 0.34666381471417201 0.33720591196116262
v 0.17500000000000032 0.34666381471417201 0.0070720830249140221
v 0.012789491163275758 0.3466433221356191 0.13153582515335827
v 0.33645118462705242 0.16223594931910498 0.30783873466475187
v 0.33426331505025048 0.16900731237958364 0.30812896094805842
v 0.33935715113501103 0.15557824029483863 0.30656968007942481
v 0.34291978600166717 0.14917492112052816 0.30434862345154567
v 0.34706377948981187 0.14316135012009126 0.30122251519765503
v 0.3328397912875366 0.17574919115542043 0.30743422390121333
v 0.31230394564852326 0.30892996591317773 0.28382550651158467
v 0.31178135115255368 0.31352337390832635 0.28276924891088062
v 0.31164829988013609 0.31798664226650081 0.28125455003260202
v 0.3119061520144083 0.32227414299595736 0.27929689464315011
v 0.31255227153304083 0.32634204497739344 0.27691629585327215
v 0.31358005315629339 0.33014876204947413 0.27413709052403346
v 0.31497898987278855 0.33365537814415319 0.2709876904710905
v 0.31673478035268737 0.33682604512563041 0.26750029201070336
v 0.31882947515018184 0.33962834926583818 0.26371054681680006
v 0.32134571115213362 0.34210994722475968 0.25949273572843112
v 0.017160208712463411 0.17574919115542045 0.30743422390121322
v 0.015736684949749606 0.16900731237958361 0.30812896094805819
v 0.03769605435147684 0.30892996591317767 0.2838255065115845
v 0.038218648847446496 0.31352337390832635 0.28276924891088051
v 0.038351700119864059 0.31798664226650081 0.28125455003260191
v 0.038093847985591942 0.32227414299595719 0.27929689464315
v 0.037447728466959478 0.32634204497739333 0.27691629585327215
v 0.036419946843706801 0.33014876204947424 0.27413709052403346
v 0.035021010127211635 0.33365537814415325 0.2709876904710905
v 0.033265219647312855 0.33682604512563041 0.26750029201070324
v 0.03117052484981837 0.33962834926583807 0.26371054681679973
v 0.0029362205101881415 0.14316135012009126 0.30122251519765497
v 0.0070802139983328705 0.14917492112052808 0.30434862345154562
v 0.010642848864988962 0.15557824029483858 0.3065696800794247
v 0.013548815372947578 0.16223594931910487 0.30783873466475176
v 0.015269032533599732 0.3466433221356191 0.12554968274865691
v 0.017430757744541048 0.34632853309282691 0.12014142039534742
v 0.019406386683970017 0.34538841738898063 0.11480620003559966
v 0.021169237237217114 0.34383567187950298 0.10961607718479152
v 0.022695500995897577 0.34169126737166949 0.10464114772494298
v 0.023964564805479999 0.3389841654006317 0.099948601215627542
v 0.024959289158937296 0.33575092708562193 0.095601813456599238
v 0.02566623967659731 0.33203521934898239 0.091659490557652323
v 0.025982988063931133 0.32882775384475504 0.088964988044877125
v 0.17500000000000035 0.34666381471417201 0.34292791697508662
v 0.02631630399516063 0.32788722516684221 0.088174876075587549
v 0.02728979754957107 0.32336296581637941 0.085195031926402265
v 0.027753620654077379 0.31852354427314467 0.08276020278443752
v 0.027701509085163847 0.31343431997684545 0.080903272552672212
v 0.027134166642430384 0.30816402611089655 0.079649320244877087
v 0.0067164252987029762 0.17574919115542034 0.056176379632057349
v 0.0052929015359892062 0.16900731237958361 0.055481642585212376
v 0.00019906545122854043 0.15557824029483849 0.057040923453845871
v 0.0031050319591872126 0.16223594931910496 0.055771868868518815
v -0.0016973342746546593 0 0.00066965127814466729
v 0.11079931993340227 0.34666381471417201 0.32861606006393979
v 0.13153705688245293 0.34666381471417201 0.33720591196116251
v 0.093429580588907879 0.33964884184439109 0.32316952056261711
v 0.097482929951789157 0.34205413518853217 0.32424903572499242
v 0.1017584460937308 0.34403782842311692 0.32552564479100982
v 0.10621242041386671 0.34557964225251103 0.32698629698638237
v 0.33721050883672465 0.3466433221356191 0.2184641748466418
v 0.32257321425695223 0.34401733584456418 0.25538168131197697
v 0.32403386645232479 0.34555914967395812 0.25092770699184108
v 0.32566362952988215 0.3466433221356191 0.24634080747230555
v 0.052791503954162058 0.1491954136990809 0.0016073488564958271
v 0.050570447326282894 0.1555987328733914 0.0051699837231519719
v 0.049301392740955817 0.16225644189765778 0.008075950231110629
v 0.049011166457649358 0.16902780495813649 0.010263819807912689
v 0.049705903504494393 0.17576968373397331 0.011687343570626452
v 0.07331462089412305 0.30895045849173058 0.032223189209639957
v 0.07437087849482707 0.31354386648687921 0.032745783705609544
v 0.075885577373105709 0.31800713484505366 0.032878834978027072
v 0.077843232762557765 0.32229463557451027 0.032620982843754975
v 0.080223831552435676 0.3263625375559463 0.031974863325122449
v 0.083003036881674347 0.33016925462802721 0.030947081701869716
v 0.086152436934617299 0.33367587072270627 0.029548144985374503
v 0.089639835395004475 0.33684653770418332 0.027792354505475736
v 0.30266733854080036 0.054793255679330438 0.35066965127814459
v 0.30266733854080036 0 0.35066965127814465
v 0.30245169134882216 0.058083396033771842 0.35066965127814459
v 0.30180843955613085 0.061317241174549522 0.35066965127814459
v 0.30074858937924254 0.064439459114713493 0.35066965127814459
v 0.29929027514852979 0.067396627839665213 0.35066965127814459
v 0.29745844902480112 0.070138149372638681 0.35066965127814459
v 0.29528445406091175 0.072617115520111367 0.35066965127814459
v 0.29280548791343902 0.07479111048400075 0.35066965127814459
v 0.29006396638046561 0.076622936607729383 0.35066965127814459
v 0.28710679765551383 0.078081250838442154 0.35066965127814459
v 0.28398457971534991 0.079141101015330451 0.35066965127814459
v 0.28075073457457222 0.07978435280802175 0.35066965127814459
v 0.27746059422013081 0.079999999999999988 0.35066965127814459
v 0.2947520390700919 0.14318184269864412 0.35066965127814465
v 0.29078696128950626 0.13768513939700563 0.35066965127814459
v 0.28606673086968243 0.13282149736904891 0.35066965127814459
v 0.28069112769988402 0.12869372804976859 0.35066965127814459
v 0.27477378544654324 0.12538908742646873 0.35066965127814459
v 0.26843978947674135 0.12297743155407063 0.35066965127814459
v 0.077874082861470004 0.080000000000000002 0.35066965127814459
v 0.26182303270676704 0.12150973988367909 0.35066965127814459
v 0.25506338526987049 0.12101703761943021 0.35066965127814465
v 0.05266733854080044 0.054793255679330438 0.35066965127814459
v 0.05266733854080044 0 0.35066965127814465
v 0.052882985732778685 0.058083396033771842 0.35066965127814459
v 0.053526237525469977 0.061317241174549522 0.35066965127814459
v 0.054586087702358274 0.064439459114713493 0.35066965127814459
v 0.056044401933071031 0.067396627839665213 0.35066965127814459
v 0.057876228056799678 0.070138149372638695 0.35066965127814459
v 0.060050223020689047 0.07261711552011138 0.35066965127814459
v 0.062529189168161747 0.07479111048400075 0.35066965127814459
v 0.065270710701135229 0.076622936607729397 0.35066965127814459
v 0.068227879426086935 0.078081250838442168 0.35066965127814459
v 0.07135009736625092 0.079141101015330464 0.35066965127814459
v 0.0745839425070286 0.07978435280802175 0.35066965127814459
v 0.055917612208052664 0.1431818426986442 0.35066965127814465
v 0.059882689988638389 0.13768513939700566 0.35066965127814465
v 0.064602920408462217 0.13282149736904891 0.35066965127814465
v 0.069978523578260579 0.12869372804976864 0.35066965127814459
v 0.075895865831601475 0.1253890874264687 0.35066965127814459
v 0.082229861801403292 0.12297743155407066 0.35066965127814459
v 0.088846618571377572 0.12150973988367914 0.35066965127814465
v 0.095606266008274085 0.12101703761943022 0.35066965127814465
vt -2.575688362121582 -4.027644157409668
vt -1.3289456367492676 2.4716076850891113
vt -2.0364573001861572 14.226932525634766
vt -1.2674438953399658 2.1980435848236084
vt -1.158158540725708 1.9290710687637329
vt -1.0033996105194092 1.6703759431838989
vt -0.93440896272659302 1.58527672290802
vt -1.3413635492324829 2.743980884552002
vt -1.0975524187088013 8.093562126159668
vt -1.0719834566116333 8.3064823150634766
vt -1.0152323246002197 8.5120878219604492
vt -0.92806553840637207 8.7076015472412109
vt -0.81166023015975952 8.8903827667236328
vt -0.66758859157562256 9.0579624176025391
vt -0.49779635667800903 9.2080774307250977
vt -0.43408128619194031 9.2511510848999023
vt -0.58106338977813721 14.226932525634766
vt 13.77952766418457 0
vt 11.804558753967285 2.157214879989624
vt 11.804558753967285 0
vt 1.9620394706726074 0
vt 0.026364224031567574 0.069706164300441742
vt 0.026364224031567574 0
vt 1.9620394706726074 2.157214879989624
vt 2.0681102275848389 5.468017578125
vt 1.9705295562744141 2.286747932434082
vt 1.995854377746582 2.4140646457672119
vt 2.0375807285308838 2.5369865894317627
vt 2.0949947834014893 2.6534104347229004
vt 2.1028430461883545 5.419867992401123
vt 2.1671137809753418 2.7613444328308105
vt 2.2886788845062256 5.2283859252929688
vt 2.2527041435241699 2.8589415550231934
vt 2.3503012657165527 2.9445319175720215
vt 2.500316858291626 5.0658755302429199
vt 2.4582352638244629 3.0166511535644531
vt 2.5746591091156006 3.0740649700164795
vt 2.7332830429077148 4.9357714653015137
vt 2.6975812911987305 3.1157913208007812
vt 2.8248980045318604 3.1411161422729492
vt 2.9826529026031494 4.8408246040344238
vt 2.9544310569763184 3.1496062278747559
vt 3.2431552410125732 4.7830410003662109
vt 10.812168121337891 3.1496062278747559
vt 3.5092830657958984 4.763643741607666
vt 9.7871227264404297 4.763643741607666
vt 10.053250312805176 4.7830410003662109
vt 10.313752174377441 4.8408246040344238
vt 10.563122749328613 4.9357714653015137
vt 10.796088218688965 5.0658755302429199
vt 11.007726669311523 5.2283859252929688
vt 10.94170093536377 3.1411161422729492
vt 11.06901741027832 3.1157913208007812
vt 11.193562507629395 5.419867992401123
vt 11.191939353942871 3.0740649700164795
vt 11.30836296081543 3.0166511535644531
vt 11.349667549133301 5.6362738609313965
vt 11.41629695892334 2.9445319175720215
vt 11.472743034362793 5.8730282783508301
vt 11.513894081115723 2.8589415550231934
vt 11.538864135742188 6.0636553764343262
vt 11.599484443664551 2.7613444328308105
vt 13.77952766418457 0.13941232860088348
vt 11.671604156494141 2.6534104347229004
vt 11.729018211364746 2.5369865894317627
vt 11.770744323730469 2.4140646457672119
vt 11.796069145202637 2.286747932434082
vt -3.0526647567749023 14.377262115478516
vt -3.4768228530883789 9.7984619140625
vt -2.9174091815948486 9.7984619140625
vt -4.5390257835388184 9.4890308380126953
vt -4.5080585479736328 14.377262115478516
vt -4.6550407409667969 9.4014806747436523
vt -4.3492226600646973 9.5983982086181641
vt -4.1452732086181641 9.685032844543457
vt -3.9299323558807373 9.7477636337280273
vt -3.7061078548431396 9.7857446670532227
vt 11.005965232849121 -1.8948843479156494
vt 9.4239435195922852 4.1326351165771484
vt 9.2912969589233398 3.9690167903900146
vt 9.5787029266357422 4.3913302421569824
vt 9.68798828125 4.6603026390075684
vt 9.7494897842407227 4.9338669776916504
vt 10.457000732421875 16.689191818237305
vt 9.7619075775146484 5.2062397003173828
vt 9.5180959701538086 10.555821418762207
vt 9.4925270080566406 10.768741607666016
vt 9.4357767105102539 10.974347114562988
vt 9.3486089706420898 11.16986083984375
vt 9.2322044372558594 11.352641105651855
vt 9.0881328582763672 11.520220756530762
vt 8.9183406829833984 11.670336723327637
vt 8.8546247482299805 11.713410377502441
vt 9.0016069412231445 16.689191818237305
vt 6.8119196891784668 10.078557968139648
vt 5.2212457656860352 14.658186912536621
vt 5.085965633392334 10.078557968139648
vt 6.6766395568847656 14.658186912536621
vt -11.982861518859863 2.157214879989624
vt -13.872715950012207 0
vt -11.982861518859863 0
vt -13.872715950012207 0.13941232860088348
vt -13.819987297058105 0.32109799981117249
vt -11.751199722290039 5.7909059524536133
vt -11.974370956420898 2.286747932434082
vt -11.94904613494873 2.4140646457672119
vt -11.907320022583008 2.5369865894317627
vt -11.849905967712402 2.6534104347229004
vt -11.777787208557129 2.7613444328308105
vt -11.692196846008301 2.8589415550231934
vt -11.594599723815918 2.9445319175720215
vt -11.486665725708008 3.0166511535644531
vt -11.370241165161133 3.0740649700164795
vt -11.247319221496582 3.1157913208007812
vt -11.120002746582031 3.1411161422729492
vt -10.990469932556152 3.1496062278747559
vt -11.671235084533691 5.637080192565918
vt -11.515130043029785 5.4206748008728027
vt -11.329294204711914 5.2291927337646484
vt -11.117655754089355 5.0666823387145996
vt -10.884689331054688 4.9365782737731934
vt -10.635319709777832 4.8416309356689453
vt -3.1327328681945801 3.1496062278747559
vt -10.374817848205566 4.7838478088378906
vt -10.108689308166504 4.7644500732421875
vt -0.066824182868003845 0.23025517165660858
vt -2.1403415203094482 0
vt -0.066824182868003845 0
vt -2.1403415203094482 2.157214879989624
vt -0.09318840503692627 0.32109799981117249
vt -2.173079252243042 5.8202624320983887
vt -2.1488316059112549 2.286747932434082
vt -2.1741564273834229 2.4140646457672119
vt -2.2158827781677246 2.5369865894317627
vt -2.273296594619751 2.6534104347229004
vt -2.3454158306121826 2.7613444328308105
vt -2.4310061931610107 2.8589415550231934
vt -2.5286033153533936 2.9445319175720215
vt -2.6365373134613037 3.0166511535644531
vt -2.7529611587524414 3.0740649700164795
vt -2.8758831024169922 3.1157913208007812
vt -3.0031998157501221 3.1411161422729492
vt -2.2683050632476807 5.637080192565918
vt -2.424410343170166 5.4206748008728027
vt -2.6102461814880371 5.2291927337646484
vt -2.8218841552734375 5.0666823387145996
vt -3.0548503398895264 4.9365782737731934
vt -3.3042201995849609 4.8416309356689453
vt -3.5647225379943848 4.7838478088378906
vt -3.83085036277771 4.7644500732421875
vt -8.4575099945068359 -2.291982889175415
vt -8.4858741760253906 -2.4567325115203857
vt -8.4526433944702148 -2.4567325115203857
vt 2.8645212650299072 9.7927207946777344
vt 4.4551949501037598 14.372349739074707
vt 2.9998011589050293 14.372349739074707
vt 3.1196138858795166 9.7927207946777344
vt 3.3488988876342773 9.780003547668457
vt 3.572723388671875 9.7420225143432617
vt 3.7880644798278809 9.6792917251586914
vt 3.992013692855835 9.5926570892333984
vt 4.181816577911377 9.4832897186279297
vt 4.3549103736877441 9.3526668548583984
vt 4.5089564323425293 9.2025508880615234
vt 4.6117362976074219 9.0729694366455078
vt 0.032099045813083649 0.0055264551192522049
vt 1.3218064308166504 6.8342776298522949
vt 0.58106338977813721 18.589601516723633
vt 1.3833080530166626 6.5607132911682129
vt 1.49259352684021 6.291740894317627
vt 1.6473524570465088 6.033045768737793
vt 1.7555766105651855 5.8995523452758789
vt 1.3093885183334351 7.1066508293151855
vt 1.5546098947525024 12.487175941467285
vt 1.5750764608383179 12.672750473022461
vt 1.6191983222961426 12.853067398071289
vt 1.6865243911743164 13.026283264160156
vt 1.7763664722442627 13.190627098083496
vt 1.8878060579299927 13.344418525695801
vt 2.0197038650512695 13.486086845397949
vt 2.1707117557525635 13.614182472229004
vt 2.1831812858581543 13.622556686401367
vt 2.0364573001861572 18.589601516723633
vt 5.5136451721191406 1.5309922695159912
vt 6.0190558433532715 6.6482028961181641
vt 5.9855179786682129 6.9029459953308105
vt 6.9565877914428711 1.3410252332687378
vt 6.1173830032348633 6.4108200073242188
vt 6.273798942565918 6.2069745063781738
vt 6.4776439666748047 6.0505585670471191
vt 6.71502685546875 5.9522314071655273
vt 6.9697699546813965 5.918694019317627
vt 8.3995304107666016 1.5309922695159912
vt 7.224513053894043 5.9522314071655273
vt 7.4618959426879883 6.0505585670471191
vt 7.6657414436340332 6.2069745063781738
vt 7.8221573829650879 6.4108200073242188
vt 7.9204845428466797 6.6482028961181641
vt 7.9540219306945801 6.9029459953308105
vt 1.571452260017395 5.4731850624084473
vt 1.571452260017395 8.3590707778930664
vt 1.3814852237701416 6.9161281585693359
vt 2.1284072399139404 9.703679084777832
vt 2.1284072399139404 4.1285767555236816
vt 3.014394998550415 10.858321189880371
vt 3.014394998550415 2.9739351272583008
vt 4.1690363883972168 11.744308471679688
vt 4.1690363883972168 2.0879473686218262
vt 5.5136451721191406 12.301263809204102
vt 6.0190558433532715 7.157689094543457
vt 6.9565877914428711 12.491230964660645
vt 6.1173830032348633 7.3950719833374023
vt 6.273798942565918 7.5989170074462891
vt 6.4776439666748047 7.7553329467773438
vt 6.71502685546875 7.8536601066589355
vt 6.9697699546813965 7.8871979713439941
vt 8.3995304107666016 12.301263809204102
vt 7.224513053894043 7.8536601066589355
vt 7.4618959426879883 7.7553329467773438
vt 7.6657414436340332 7.5989170074462891
vt 7.8221573829650879 7.3950719833374023
vt 7.9204845428466797 7.157689094543457
vt 9.7441396713256836 2.0879473686218262
vt 9.7441396713256836 11.744308471679688
vt 10.898780822753906 2.9739351272583008
vt 10.898780822753906 10.858321189880371
vt 11.784768104553223 4.1285767555236816
vt 11.784768104553223 9.703679084777832
vt 12.341723442077637 8.3590707778930664
vt 12.341723442077637 5.4731850624084473
vt 12.53169059753418 6.9161281585693359
vt -2.0681102275848389 5.468017578125
vt -1.9620394706726074 2.157214879989624
vt 0 0
vt -1.9705295562744141 2.286747932434082
vt -1.995854377746582 2.4140646457672119
vt -2.0375807285308838 2.5369865894317627
vt -2.0949947834014893 2.6534104347229004
vt -2.1028430461883545 5.419867992401123
vt -2.1671137809753418 2.7613444328308105
vt -2.2886788845062256 5.2283859252929688
vt -2.2527041435241699 2.8589415550231934
vt -2.3503012657165527 2.9445319175720215
vt -2.500316858291626 5.0658755302429199
vt -2.4582352638244629 3.0166511535644531
vt -2.5746591091156006 3.0740649700164795
vt -2.7332830429077148 4.9357714653015137
vt -2.6975812911987305 3.1157913208007812
vt -2.8248980045318604 3.1411161422729492
vt -2.9826529026031494 4.8408246040344238
vt -2.9544310569763184 3.1496062278747559
vt -3.2431552410125732 4.7830410003662109
vt -10.812168121337891 3.1496062278747559
vt -3.5092830657958984 4.763643741607666
vt -9.7871227264404297 4.763643741607666
vt -10.053250312805176 4.7830410003662109
vt -10.313752174377441 4.8408246040344238
vt -10.563122749328613 4.9357714653015137
vt -10.796088218688965 5.0658755302429199
vt -11.007726669311523 5.2283859252929688
vt -10.94170093536377 3.1411161422729492
vt -11.06901741027832 3.1157913208007812
vt -11.193562507629395 5.419867992401123
vt -11.191939353942871 3.0740649700164795
vt -11.30836296081543 3.0166511535644531
vt -11.349667549133301 5.6362738609313965
vt -11.41629695892334 2.9445319175720215
vt -11.472743034362793 5.8730282783508301
vt -11.513894081115723 2.8589415550231934
vt -11.538864135742188 6.0636553764343262
vt -11.599484443664551 2.7613444328308105
vt -13.77952766418457 0.13941232860088348
vt -11.671604156494141 2.6534104347229004
vt -11.729018211364746 2.5369865894317627
vt -11.770744323730469 2.4140646457672119
vt -11.796069145202637 2.286747932434082
vt -11.804558753967285 2.157214879989624
vt -11.804558753967285 0
vt -13.77952766418457 0
vt -1.9620394706726074 0
vt -13.872715950012207 0.069706164300441742
vt -13.892946243286133 0
vt -13.872715950012207 0
vt -2.9998011589050293 18.444185256958008
vt -3.027137279510498 13.758466720581055
vt -2.8591110706329346 13.681407928466797
vt -3.2111492156982422 13.820755958557129
vt -3.4025440216064453 13.864556312561035
vt -4.5904750823974609 13.864556312561035
vt -4.4551949501037598 18.444185256958008
vt -8.3460397720336914 15.571910858154297
vt -8.3391218185424805 10.709704399108887
vt -8.1993160247802734 10.604865074157715
vt -8.5028190612792969 10.806878089904785
vt -8.6775674819946289 10.887020111083984
vt -8.8615789413452148 10.949309349060059
vt -9.052973747253418 10.993109703063965
vt -9.8014335632324219 15.571910858154297
vt -9.9366893768310547 10.993109703063965
vt 2.4868597984313965 -4.21575927734375
vt 0.74695843458175659 1.9265674352645874
vt 0.70922183990478516 1.8634868860244751
vt 0.8562437891960144 2.1955399513244629
vt 0.91774547100067139 2.4691040515899658
vt 0.36779284477233887 8.9258766174316406
vt 1.9797277450561523 14.22525691986084
vt 0.5243338942527771 14.22525691986084
vt 0.40046006441116333 8.88787841796875
vt 0.51686537265777588 8.7050981521606445
vt 0.60403221845626831 8.5095844268798828
vt 0.66078329086303711 8.3039789199829102
vt 0.68635225296020508 8.0910587310791016
vt 0.93016338348388672 2.7414772510528564
vt 2.5189588069915771 -4.0293197631835938
vt -5.2212457656860352 18.158348083496094
vt -6.8119196891784668 13.578719139099121
vt -5.085965633392334 13.578719139099121
vt -6.6766395568847656 18.158348083496094
vt 9.8014335632324219 17.244623184204102
vt 9.8324012756347656 12.356391906738281
vt 9.9484157562255859 12.268842697143555
vt 9.6425981521606445 12.46575927734375
vt 9.4386482238769531 12.552393913269043
vt 9.2233076095581055 12.615124702453613
vt 8.9994831085205078 12.653105735778809
vt 8.770197868347168 12.665822982788086
vt 8.2107839584350586 12.665822982788086
vt 8.3460397720336914 17.244623184204102
vt 13.852485656738281 0
vt 13.77952766418457 0.23025517165660858
vt 13.77952766418457 0
vt 13.805891990661621 0.16054899990558624
vt -5.2666406631469727 14.66600227355957
vt -6.8572897911071777 10.087202072143555
vt -5.131385326385498 10.087202072143555
vt -6.7220344543457031 14.66600227355957
vt -8.4926738739013672 17.753246307373047
vt -6.9019994735717773 13.173617362976074
vt -7.0372796058654785 17.753246307373047
vt -8.6279535293579102 13.173617362976074
vt 8.466090202331543 -2.3979313373565674
vt 9.4421977996826172 4.0848979949951172
vt 9.3806962966918945 4.358461856842041
vt 9.551483154296875 3.8159253597259521
vt 9.706242561340332 3.5572299957275391
vt 9.903203010559082 3.3142807483673096
vt 10.085916519165039 3.1416223049163818
vt 8.4451742172241211 -2.46946120262146
vt 8.9941387176513672 16.114614486694336
vt 8.4784059524536133 -2.46946120262146
vt 9.3682785034179688 4.6308350563049316
vt 9.613499641418457 10.011360168457031
vt 9.6339664459228516 10.196934700012207
vt 9.6780881881713867 10.377251625061035
vt 9.7454137802124023 10.550467491149902
vt 9.8352565765380859 10.714811325073242
vt 9.9466962814331055 10.868602752685547
vt 10.449532508850098 16.114614486694336
vt 10.078594207763672 11.010271072387695
vt 10.229601860046387 11.13836669921875
vt 10.398175239562988 11.251580238342285
vt 10.590222358703613 11.351837158203125
vt 0.024630462750792503 0.0072022168897092342
vt -0.89847344160079956 7.1074986457824707
vt -0.91089135408401489 6.8351254463195801
vt -0.5243338942527771 18.591278076171875
vt -1.1436948776245117 12.48802375793457
vt -1.1641614437103271 12.673598289489746
vt -1.2082833051681519 12.853915214538574
vt -1.2756093740463257 13.027131080627441
vt -1.365451455116272 13.191474914550781
vt -1.476891040802002 13.345266342163086
vt -1.9797277450561523 18.591278076171875
vt -1.6087888479232788 13.486934661865234
vt -1.7597966194152832 13.615030288696289
vt -1.928370475769043 13.728243827819824
vt -2.1204178333282471 13.828500747680664
vt -1.4333984851837158 5.7909445762634277
vt -1.6161117553710938 5.6182856559753418
vt -1.2364373207092285 6.0338935852050781
vt -1.0816783905029297 6.2925887107849121
vt -0.97239303588867188 6.561561107635498
vt -9.7795372009277344 17.256484985351562
vt -8.1888628005981445 12.676856994628906
vt -8.3241434097290039 17.256484985351562
vt -8.4439554214477539 12.676856994628906
vt -8.6732406616210938 12.664138793945312
vt -8.8970651626586914 12.626158714294434
vt -9.1124067306518555 12.563426971435547
vt -9.3163557052612305 12.47679328918457
vt -9.5061588287353516 12.367425918579102
vt -9.6792516708374023 12.236802101135254
vt -9.8332977294921875 12.086687088012695
vt -9.9360780715942383 11.957104682922363
vt 8.5275058746337891 17.743061065673828
vt 6.936856746673584 13.164259910583496
vt 8.6627616882324219 13.164259910583496
vt 7.0721120834350586 17.743061065673828
vt -10.449532508850098 16.701919555664062
vt -8.8375978469848633 11.40254020690918
vt -8.9941387176513672 16.701919555664062
vt -8.870265007019043 11.364542007446289
vt -8.9866704940795898 11.181761741638184
vt -9.0738372802734375 10.986248016357422
vt -9.1305885314941406 10.780642509460449
vt -9.1561574935913086 10.567721366882324
vt -9.399968147277832 5.2181406021118164
vt -10.988763809204102 -1.5526562929153442
vt -9.3875503540039062 4.945767879486084
vt -9.2167634963989258 4.403231143951416
vt -10.9566650390625 -1.7390956878662109
vt -9.1790266036987305 4.3401503562927246
vt -9.3260488510131836 4.672203540802002
vt -10.972714424133301 -1.6458760499954224
vt -10.993630409240723 -1.7174060344696045
vt -10.932034492492676 -1.8821556568145752
vt -10.998497009277344 -1.8821556568145752
vt 4.5080585479736328 18.439271926879883
vt 3.759598970413208 13.860471725463867
vt 4.6433138847351074 13.860471725463867
vt 3.0457465648651123 13.577065467834473
vt 3.0526647567749023 18.439271926879883
vt 2.9059405326843262 13.472226142883301
vt 3.2094442844390869 13.674240112304688
vt 3.3841922283172607 13.75438117980957
vt 3.5682041645050049 13.816670417785645
vt 0.040459960699081421 0.13941232860088348
vt 0 0
vt 0.040459960699081421 0
vt -7.0721120834350586 15.073474884033203
vt -8.6627616882324219 10.494673728942871
vt -6.936856746673584 10.494673728942871
vt -8.5275058746337891 15.073474884033203
vt 8.6279535293579102 10.483660697937012
vt 7.0372796058654785 15.063288688659668
vt 6.9019994735717773 10.483660697937012
vt 8.4926738739013672 15.063288688659668
vt 8.3514795303344727 10.874330520629883
vt 8.3241434097290039 15.560049057006836
vt 8.1834526062011719 10.797271728515625
vt 8.5354909896850586 10.936620712280273
vt 8.7268857955932617 10.98042106628418
vt 9.9148168563842773 10.98042106628418
vt 9.7795372009277344 15.560049057006836
vt -8.462376594543457 -2.1272332668304443
vt -10.067896842956543 3.570786714553833
vt -10.112464904785156 3.5158123970031738
vt -9.9131374359130859 3.829481840133667
vt -9.8038520812988281 4.098454475402832
vt -9.7423505783081055 4.3720183372497559
vt -9.0016069412231445 16.127344131469727
vt -9.7299327850341797 4.6443915367126465
vt -9.975153923034668 10.024916648864746
vt -9.9956207275390625 10.210491180419922
vt -10.039742469787598 10.39080810546875
vt -10.107068061828613 10.564023971557617
vt -10.196910858154297 10.728367805480957
vt -10.308349609375 10.882159233093262
vt -10.440247535705566 11.02382755279541
vt -10.591255187988281 11.151923179626465
vt -10.603725433349609 11.160297393798828
vt -10.457000732421875 16.127344131469727
vt 13.872715950012207 0
vt 11.982861518859863 2.157214879989624
vt 11.982861518859863 0
vt 11.974370956420898 2.286747932434082
vt 11.711422920227051 5.7143888473510742
vt 11.94904613494873 2.4140646457672119
vt 11.907320022583008 2.5369865894317627
vt 11.849905967712402 2.6534104347229004
vt 11.777787208557129 2.7613444328308105
vt 11.692196846008301 2.8589415550231934
vt 11.594599723815918 2.9445319175720215
vt 11.486665725708008 3.0166511535644531
vt 11.370241165161133 3.0740649700164795
vt 11.247319221496582 3.1157913208007812
vt 11.120002746582031 3.1411161422729492
vt 10.990469932556152 3.1496062278747559
vt 11.671235084533691 5.637080192565918
vt 11.515130043029785 5.4206748008728027
vt 11.329294204711914 5.2291927337646484
vt 11.117655754089355 5.0666823387145996
vt 10.884689331054688 4.9365782737731934
vt 10.635319709777832 4.8416309356689453
vt 3.1327328681945801 3.1496062278747559
vt 10.374817848205566 4.7838478088378906
vt 10.108689308166504 4.7644500732421875
vt 2.1403415203094482 2.157214879989624
vt 0.040459960699081421 0
vt 2.1403415203094482 0
vt 2.2128560543060303 5.7437453269958496
vt 2.1488316059112549 2.286747932434082
vt 2.1741564273834229 2.4140646457672119
vt 2.2158827781677246 2.5369865894317627
vt 2.273296594619751 2.6534104347229004
vt 2.3454158306121826 2.7613444328308105
vt 2.4310061931610107 2.8589415550231934
vt 2.5286033153533936 2.9445319175720215
vt 2.6365373134613037 3.0166511535644531
vt 2.7529611587524414 3.0740649700164795
vt 2.8758831024169922 3.1157913208007812
vt 3.0031998157501221 3.1411161422729492
vt 2.2683050632476807 5.637080192565918
vt 2.424410343170166 5.4206748008728027
vt 2.6102461814880371 5.2291927337646484
vt 2.8218841552734375 5.0666823387145996
vt 3.0548503398895264 4.9365782737731934
vt 3.3042201995849609 4.8416309356689453
vt 3.5647225379943848 4.7838478088378906
vt 3.83085036277771 4.7644500732421875
vt 6.7220344543457031 18.150531768798828
vt 5.131385326385498 13.571731567382812
vt 6.8572897911071777 13.571731567382812
vt 5.2666406631469727 18.150531768798828
vn 0.43253999948501587 0.1279044896364212 -0.89249628782272339
vn 0.59323978424072266 0.22437478601932526 -0.77312517166137695
vn 0.68877720832824707 0.22621223330497742 -0.68877720832824707
vn 0.59323978424072266 0.22437478601932526 -0.77312517166137695
vn 0.59323978424072266 0.22437478601932526 -0.77312517166137695
vn 0.59323978424072266 0.22437478601932526 -0.77312517166137695
vn 0.44882971048355103 0.16975611448287964 -0.87734526395797729
vn 0.59323978424072266 0.22437478601932526 -0.77312517166137695
vn 0.59323978424072266 0.22437478601932526 -0.77312517166137695
vn 0.59323978424072266 0.22437478601932526 -0.77312517166137695
vn 0.59323978424072266 0.22437478601932526 -0.77312517166137695
vn 0.59323978424072266 0.22437478601932526 -0.77312517166137695
vn 0.59323978424072266 0.22437478601932526 -0.77312517166137695
vn 0.59323978424072266 0.22437478601932526 -0.77312517166137695
vn 0.59323978424072266 0.22437478601932526 -0.77312517166137695
vn 0.53178220987319946 0.22590100765228271 -0.81619632244110107
vn 0.48703902959823608 0.2262122631072998 -0.84357631206512451
vn 1 0 0
vn 1 0 0
vn 1 0 0
vn 1 0 0
vn 0.92517650127410889 0.13426581025123596 0.35499453544616699
vn 1 0 0
vn 1 0 0
vn 0.89262717962265015 0.15947437286376953 0.42164513468742371
vn 1 0 0
vn 1 0 0
vn 1 0 0
vn 1 0 0
vn 1 0 0
vn 1 0 0
vn 1 0 0
vn 1 0 0
vn 1 0 0
vn 1 0 0
vn 1 0 0
vn 1 0 0
vn 1 0 0
vn 1 0 0
vn 1 0 0
vn 1 0 0
vn 1 0 0
vn 1 0 0
vn 1 0 0
vn 1 0 0
vn 1 0 0
vn 1 0 0
vn 1 0 0
vn 1 0 0
vn 1 0 0
vn 1 0 0
vn 1 0 0
vn 1 0 0
vn 1 0 0
vn 1 0 0
vn 1 0 0
vn 1 0 0
vn 1 0 0
vn 1 0 0
vn 1 0 0
vn 0.86088532209396362 0.17999376356601715 -0.47589775919914246
vn 1 0 0
vn 0.70722502470016479 0.023053308948874474 -0.70661258697509766
vn 1 0 0
vn 1 0 0
vn 1 0 0
vn 1 0 0
vn 0.25210994482040405 0.22621224820613861 -0.94088715314865112
vn 0.37292611598968506 0.22437478601932526 -0.90032333135604858
vn 0.25210994482040405 0.22621224820613861 -0.94088715314865112
vn 0.37292611598968506 0.22437478601932526 -0.90032333135604858
vn 0.48703902959823608 0.2262122631072998 -0.84357631206512451
vn 0.53178220987319946 0.22590100765228271 -0.81619632244110107
vn 0.37292611598968506 0.22437478601932526 -0.90032333135604858
vn 0.37292611598968506 0.22437478601932526 -0.90032333135604858
vn 0.37292611598968506 0.22437478601932526 -0.90032333135604858
vn 0.37292611598968506 0.22437478601932526 -0.90032333135604858
vn 0.49527671933174133 0.1486472487449646 0.85592347383499146
vn 0.59323978424072266 0.22437478601932526 0.77312517166137695
vn 0.44882971048355103 0.16975611448287964 0.87734526395797729
vn 0.59323978424072266 0.22437478601932526 0.77312517166137695
vn 0.59323978424072266 0.22437478601932526 0.77312517166137695
vn 0.59323978424072266 0.22437478601932526 0.77312517166137695
vn 0.68877720832824707 0.22621223330497742 0.68877720832824707
vn 0.59323978424072266 0.22437478601932526 0.77312517166137695
vn 0.59323978424072266 0.22437478601932526 0.77312517166137695
vn 0.59323978424072266 0.22437478601932526 0.77312517166137695
vn 0.59323978424072266 0.22437478601932526 0.77312517166137695
vn 0.59323978424072266 0.22437478601932526 0.77312517166137695
vn 0.59323978424072266 0.22437478601932526 0.77312517166137695
vn 0.59323978424072266 0.22437478601932526 0.77312517166137695
vn 0.59323978424072266 0.22437478601932526 0.77312517166137695
vn 0.53178220987319946 0.22590100765228271 0.81619632244110107
vn 0.48703902959823608 0.2262122631072998 0.84357631206512451
vn 0.94088715314865112 0.22621224820613861 -0.25210994482040405
vn 0.97407805919647217 0.2262122631072998 0
vn 0.97407805919647217 0.2262122631072998 0
vn 0.94088715314865112 0.22621224820613861 -0.25210994482040405
vn 0 0 -1
vn 0 0 -1
vn 0 0 -1
vn 0.70722502470016479 0.023053308948874474 -0.70661258697509766
vn 0.43253999948501587 0.1279044896364212 -0.89249628782272339
vn 0.44882971048355103 0.16975611448287964 -0.87734526395797729
vn 0 0 -1
vn 0 0 -1
vn 0 0 -1
vn 0 0 -1
vn 0 0 -1
vn 0 0 -1
vn 0 0 -1
vn 0 0 -1
vn 0 0 -1
vn 0 0 -1
vn 0 0 -1
vn 0 0 -1
vn 0 0 -1
vn 0 0 -1
vn 0 0 -1
vn 0 0 -1
vn 0 0 -1
vn 0 0 -1
vn 0 0 -1
vn 0 0 -1
vn 0 0 -1
vn -0.48177796602249146 0.13982060551643372 -0.86506658792495728
vn 0 0 -1
vn 0 0 -1
vn 0 0 -1
vn -0.43253999948501587 0.1279044896364212 -0.89249628782272339
vn -0.44882971048355103 0.16975611448287964 -0.87734526395797729
vn 0 0 -1
vn 0 0 -1
vn 0 0 -1
vn 0 0 -1
vn 0 0 -1
vn 0 0 -1
vn 0 0 -1
vn 0 0 -1
vn 0 0 -1
vn 0 0 -1
vn 0 0 -1
vn 0 0 -1
vn 0 0 -1
vn 0 0 -1
vn 0 0 -1
vn 0 0 -1
vn 0 0 -1
vn 0 0 -1
vn 0 0 -1
vn -0.7629656195640564 0.22481611371040344 -0.60608679056167603
vn -0.59323978424072266 0.22437478601932526 -0.77312517166137695
vn -0.68877720832824707 0.22621223330497742 -0.68877720832824707
vn 0.94088715314865112 0.22621224820613861 -0.25210994482040405
vn 0.84357631206512451 0.2262122631072998 -0.48703902959823608
vn 0.94088715314865112 0.22621224820613861 -0.25210994482040405
vn 0.90032333135604858 0.22437478601932526 -0.37292611598968506
vn 0.90032333135604858 0.22437478601932526 -0.37292611598968506
vn 0.90032333135604858 0.22437478601932526 -0.37292611598968506
vn 0.90032333135604858 0.22437478601932526 -0.37292611598968506
vn 0.90032333135604858 0.22437478601932526 -0.37292611598968506
vn 0.90032333135604858 0.22437478601932526 -0.37292611598968506
vn 0.90032333135604858 0.22437478601932526 -0.37292611598968506
vn 0.90032333135604858 0.22437478601932526 -0.37292611598968506
vn 0.80425959825515747 0.22559192776679993 -0.54979521036148071
vn -0.70615494251251221 0.051869571208953857 0.70615494251251221
vn -0.59323978424072266 0.22437478601932526 0.77312517166137695
vn -0.68877720832824707 0.22621223330497742 0.68877720832824707
vn -0.59323978424072266 0.22437478601932526 0.77312517166137695
vn -0.59323978424072266 0.22437478601932526 0.77312517166137695
vn -0.59323978424072266 0.22437478601932526 0.77312517166137695
vn -0.44882971048355103 0.16975611448287964 0.87734526395797729
vn -0.59323978424072266 0.22437478601932526 0.77312517166137695
vn -0.59323978424072266 0.22437478601932526 0.77312517166137695
vn -0.59323978424072266 0.22437478601932526 0.77312517166137695
vn -0.59323978424072266 0.22437478601932526 0.77312517166137695
vn -0.59323978424072266 0.22437478601932526 0.77312517166137695
vn -0.59323978424072266 0.22437478601932526 0.77312517166137695
vn -0.59323978424072266 0.22437478601932526 0.77312517166137695
vn -0.59323978424072266 0.22437478601932526 0.77312517166137695
vn -0.59323978424072266 0.22437478601932526 0.77312517166137695
vn -0.53156685829162598 0.22590403258800507 0.81633573770523071
vn -0.48703902959823608 0.2262122631072998 0.84357631206512451
vn 0 1 0
vn 0 1 0
vn 0 1 0
vn 0 1 0
vn 0 1 0
vn 0 1 0
vn 0 1 0
vn 0 1 0
vn 0 1 0
vn 0 1 0
vn 0 1 0
vn 0 1 0
vn 0 1 0
vn 0 1 0
vn 0 1 0
vn 0 1 0
vn 0 1 0
vn 0 1 0
vn 0 1 0
vn 0 1 0
vn 0 1 0
vn 0 1 0
vn 0 1 0
vn 0 1 0
vn 0 1 0
vn 0 1 0
vn 0 1 0
vn 0 1 0
vn 0 1 0
vn 0 1 0
vn 0 1 0
vn 0 1 0
vn 0 1 0
vn 0 1 0
vn 0 1 0
vn 0 1 0
vn 0 1 0
vn 0 1 0
vn 0 1 0
vn 0 1 0
vn 0 1 0
vn 0 1 0
vn 0 1 0
vn 0 1 0
vn 0 1 0
vn 0 1 0
vn 0 1 0
vn 0 1 0
vn -0.89262717962265015 0.15947437286376953 0.42164513468742371
vn -1 0 0
vn -0.70615494251251221 0.051869571208953857 0.70615494251251221
vn -1 0 0
vn -1 0 0
vn -1 0 0
vn -1 0 0
vn -1 0 0
vn -1 0 0
vn -1 0 0
vn -1 0 0
vn -1 0 0
vn -1 0 0
vn -1 0 0
vn -1 0 0
vn -1 0 0
vn -1 0 0
vn -1 0 0
vn -1 0 0
vn -1 0 0
vn -1 0 0
vn -1 0 0
vn -1 0 0
vn -1 0 0
vn -1 0 0
vn -1 0 0
vn -1 0 0
vn -1 0 0
vn -1 0 0
vn -1 0 0
vn -1 0 0
vn -1 0 0
vn -1 0 0
vn -1 0 0
vn -1 0 0
vn -1 0 0
vn -1 0 0
vn -1 0 0
vn -0.86088532209396362 0.17999376356601715 -0.47589775919914246
vn -1 0 0
vn -0.92517650127410889 0.13426581025123596 -0.35499453544616699
vn -1 0 0
vn -1 0 0
vn -1 0 0
vn -1 0 0
vn -1 0 0
vn -1 0 0
vn -1 0 0
vn -1 0 0
vn 0 0 -1
vn 0 0 -1
vn 0 0 -1
vn -0.84357631206512451 0.2262122631072998 0.48703902959823608
vn -0.90032333135604858 0.22437478601932526 0.37292611598968506
vn -0.82436048984527588 0.22605516016483307 0.51896899938583374
vn -0.90032333135604858 0.22437478601932526 0.37292611598968506
vn -0.90032333135604858 0.22437478601932526 0.37292611598968506
vn -0.94088715314865112 0.22621224820613861 0.25210994482040405
vn -0.94088715314865112 0.22621224820613861 0.25210994482040405
vn -0.48703902959823608 0.2262122631072998 -0.84357631206512451
vn -0.37292611598968506 0.22437478601932526 -0.90032333135604858
vn -0.53156685829162598 0.22590403258800507 -0.81633573770523071
vn -0.37292611598968506 0.22437478601932526 -0.90032333135604858
vn -0.37292611598968506 0.22437478601932526 -0.90032333135604858
vn -0.37292611598968506 0.22437478601932526 -0.90032333135604858
vn -0.37292611598968506 0.22437478601932526 -0.90032333135604858
vn -0.25210994482040405 0.22621224820613861 -0.94088715314865112
vn -0.25210994482040405 0.22621224820613861 -0.94088715314865112
vn 0.70722502470016479 0.023053308948874474 -0.70661258697509766
vn 0.77312517166137695 0.22437478601932526 -0.59323978424072266
vn 0.86088532209396362 0.17999376356601715 -0.47589775919914246
vn 0.77312517166137695 0.22437478601932526 -0.59323978424072266
vn 0.77312517166137695 0.22437478601932526 -0.59323978424072266
vn 0.80425959825515747 0.22559192776679993 -0.54979521036148071
vn 0.68877720832824707 0.22621223330497742 -0.68877720832824707
vn 0.84357631206512451 0.2262122631072998 -0.48703902959823608
vn 0.77312517166137695 0.22437478601932526 -0.59323978424072266
vn 0.77312517166137695 0.22437478601932526 -0.59323978424072266
vn 0.77312517166137695 0.22437478601932526 -0.59323978424072266
vn 0.77312517166137695 0.22437478601932526 -0.59323978424072266
vn 0.77312517166137695 0.22437478601932526 -0.59323978424072266
vn 0.77312517166137695 0.22437478601932526 -0.59323978424072266
vn 0.43253999948501587 0.1279044896364212 -0.89249628782272339
vn -0.94088715314865112 0.22621224820613861 0.25210994482040405
vn -0.97407805919647217 0.2262122631072998 0
vn -0.94088715314865112 0.22621224820613861 0.25210994482040405
vn -0.97407805919647217 0.2262122631072998 0
vn 0.48703902959823608 0.2262122631072998 0.84357631206512451
vn 0.37292611598968506 0.22437478601932526 0.90032333135604858
vn 0.53178220987319946 0.22590100765228271 0.81619632244110107
vn 0.37292611598968506 0.22437478601932526 0.90032333135604858
vn 0.37292611598968506 0.22437478601932526 0.90032333135604858
vn 0.37292611598968506 0.22437478601932526 0.90032333135604858
vn 0.37292611598968506 0.22437478601932526 0.90032333135604858
vn 0.37292611598968506 0.22437478601932526 0.90032333135604858
vn 0.25210994482040405 0.22621224820613861 0.94088715314865112
vn 0.25210994482040405 0.22621224820613861 0.94088715314865112
vn 1 0 0
vn 1 0 0
vn 1 0 0
vn 1 0 0
vn 0 0.2262122631072998 -0.97407805919647217
vn 0.25210994482040405 0.22621224820613861 -0.94088715314865112
vn 0 0.2262122631072998 -0.97407805919647217
vn 0.25210994482040405 0.22621224820613861 -0.94088715314865112
vn -0.94088715314865112 0.22621224820613861 -0.25210994482040405
vn -0.97407805919647217 0.2262122631072998 0
vn -0.97407805919647217 0.2262122631072998 0
vn -0.94088715314865112 0.22621224820613861 -0.25210994482040405
vn 0.92517650127410889 0.13426581025123596 0.35499453544616699
vn 0.77312517166137695 0.22437478601932526 0.59323978424072266
vn 0.77312517166137695 0.22437478601932526 0.59323978424072266
vn 0.77312517166137695 0.22437478601932526 0.59323978424072266
vn 0.77312517166137695 0.22437478601932526 0.59323978424072266
vn 0.77312517166137695 0.22437478601932526 0.59323978424072266
vn 0.89262717962265015 0.15947437286376953 0.42164513468742371
vn 0.49527671933174133 0.1486472487449646 0.85592347383499146
vn 0.68877720832824707 0.22621223330497742 0.68877720832824707
vn 0.77312517166137695 0.22437478601932526 0.59323978424072266
vn 0.77312517166137695 0.22437478601932526 0.59323978424072266
vn 0.77312517166137695 0.22437478601932526 0.59323978424072266
vn 0.77312517166137695 0.22437478601932526 0.59323978424072266
vn 0.77312517166137695 0.22437478601932526 0.59323978424072266
vn 0.77312517166137695 0.22437478601932526 0.59323978424072266
vn 0.77312517166137695 0.22437478601932526 0.59323978424072266
vn 0.77312517166137695 0.22437478601932526 0.59323978424072266
vn 0.84357631206512451 0.2262122631072998 0.48703902959823608
vn 0.77312517166137695 0.22437478601932526 0.59323978424072266
vn 0.77312517166137695 0.22437478601932526 0.59323978424072266
vn 0.77312517166137695 0.22437478601932526 0.59323978424072266
vn 0.82436048984527588 0.22605516016483307 0.51896899938583374
vn -0.70615494251251221 0.051869571208953857 0.70615494251251221
vn -0.77312517166137695 0.22437478601932526 0.59323978424072266
vn -0.77312517166137695 0.22437478601932526 0.59323978424072266
vn -0.68877720832824707 0.22621223330497742 0.68877720832824707
vn -0.77312517166137695 0.22437478601932526 0.59323978424072266
vn -0.77312517166137695 0.22437478601932526 0.59323978424072266
vn -0.77312517166137695 0.22437478601932526 0.59323978424072266
vn -0.77312517166137695 0.22437478601932526 0.59323978424072266
vn -0.77312517166137695 0.22437478601932526 0.59323978424072266
vn -0.77312517166137695 0.22437478601932526 0.59323978424072266
vn -0.84357631206512451 0.2262122631072998 0.48703902959823608
vn -0.77312517166137695 0.22437478601932526 0.59323978424072266
vn -0.77312517166137695 0.22437478601932526 0.59323978424072266
vn -0.77312517166137695 0.22437478601932526 0.59323978424072266
vn -0.82436048984527588 0.22605516016483307 0.51896899938583374
vn -0.77312517166137695 0.22437478601932526 0.59323978424072266
vn -0.89262717962265015 0.15947437286376953 0.42164513468742371
vn -0.77312517166137695 0.22437478601932526 0.59323978424072266
vn -0.77312517166137695 0.22437478601932526 0.59323978424072266
vn -0.77312517166137695 0.22437478601932526 0.59323978424072266
vn -0.84357631206512451 0.2262122631072998 -0.48703902959823608
vn -0.94088715314865112 0.22621224820613861 -0.25210994482040405
vn -0.94088715314865112 0.22621224820613861 -0.25210994482040405
vn -0.90032333135604858 0.22437478601932526 -0.37292611598968506
vn -0.90032333135604858 0.22437478601932526 -0.37292611598968506
vn -0.90032333135604858 0.22437478601932526 -0.37292611598968506
vn -0.90032333135604858 0.22437478601932526 -0.37292611598968506
vn -0.90032333135604858 0.22437478601932526 -0.37292611598968506
vn -0.90032333135604858 0.22437478601932526 -0.37292611598968506
vn -0.90032333135604858 0.22437478601932526 -0.37292611598968506
vn -0.90032333135604858 0.22437478601932526 -0.37292611598968506
vn -0.80425959825515747 0.22559192776679993 -0.54979521036148071
vn 0.25210994482040405 0.22621224820613861 0.94088715314865112
vn 0 0.2262122631072998 0.97407805919647217
vn 0.25210994482040405 0.22621224820613861 0.94088715314865112
vn 0 0.2262122631072998 0.97407805919647217
vn -0.68877720832824707 0.22621223330497742 -0.68877720832824707
vn -0.80425959825515747 0.22559192776679993 -0.54979521036148071
vn -0.84357631206512451 0.2262122631072998 -0.48703902959823608
vn -0.77312517166137695 0.22437478601932526 -0.59323978424072266
vn -0.77312517166137695 0.22437478601932526 -0.59323978424072266
vn -0.77312517166137695 0.22437478601932526 -0.59323978424072266
vn -0.77312517166137695 0.22437478601932526 -0.59323978424072266
vn -0.77312517166137695 0.22437478601932526 -0.59323978424072266
vn -0.77312517166137695 0.22437478601932526 -0.59323978424072266
vn -0.43253999948501587 0.1279044896364212 -0.89249628782272339
vn -0.77312517166137695 0.22437478601932526 -0.59323978424072266
vn -0.77312517166137695 0.22437478601932526 -0.59323978424072266
vn -0.92517650127410889 0.13426581025123596 -0.35499453544616699
vn -0.86088532209396362 0.17999376356601715 -0.47589775919914246
vn -0.77312517166137695 0.22437478601932526 -0.59323978424072266
vn -0.48177796602249146 0.13982060551643372 -0.86506658792495728
vn -0.7629656195640564 0.22481611371040344 -0.60608679056167603
vn -0.77312517166137695 0.22437478601932526 -0.59323978424072266
vn -0.68877720832824707 0.22621223330497742 -0.68877720832824707
vn -0.25210994482040405 0.22621224820613861 0.94088715314865112
vn -0.37292611598968506 0.22437478601932526 0.90032333135604858
vn -0.25210994482040405 0.22621224820613861 0.94088715314865112
vn -0.37292611598968506 0.22437478601932526 0.90032333135604858
vn -0.48703902959823608 0.2262122631072998 0.84357631206512451
vn -0.53156685829162598 0.22590403258800507 0.81633573770523071
vn -0.37292611598968506 0.22437478601932526 0.90032333135604858
vn -0.37292611598968506 0.22437478601932526 0.90032333135604858
vn -0.37292611598968506 0.22437478601932526 0.90032333135604858
vn 0 0 1
vn 0 0 1
vn 0 0 1
vn -0.25210994482040405 0.22621224820613861 -0.94088715314865112
vn 0 0.2262122631072998 -0.97407805919647217
vn -0.25210994482040405 0.22621224820613861 -0.94088715314865112
vn 0 0.2262122631072998 -0.97407805919647217
vn 0.97407805919647217 0.2262122631072998 0
vn 0.94088715314865112 0.22621224820613861 0.25210994482040405
vn 0.94088715314865112 0.22621224820613861 0.25210994482040405
vn 0.97407805919647217 0.2262122631072998 0
vn 0.90032333135604858 0.22437478601932526 0.37292611598968506
vn 0.84357631206512451 0.2262122631072998 0.48703902959823608
vn 0.82436048984527588 0.22605516016483307 0.51896899938583374
vn 0.90032333135604858 0.22437478601932526 0.37292611598968506
vn 0.90032333135604858 0.22437478601932526 0.37292611598968506
vn 0.94088715314865112 0.22621224820613861 0.25210994482040405
vn 0.94088715314865112 0.22621224820613861 0.25210994482040405
vn -0.43253999948501587 0.1279044896364212 -0.89249628782272339
vn -0.59323978424072266 0.22437478601932526 -0.77312517166137695
vn -0.44882971048355103 0.16975611448287964 -0.87734526395797729
vn -0.59323978424072266 0.22437478601932526 -0.77312517166137695
vn -0.59323978424072266 0.22437478601932526 -0.77312517166137695
vn -0.59323978424072266 0.22437478601932526 -0.77312517166137695
vn -0.68877720832824707 0.22621223330497742 -0.68877720832824707
vn -0.59323978424072266 0.22437478601932526 -0.77312517166137695
vn -0.59323978424072266 0.22437478601932526 -0.77312517166137695
vn -0.59323978424072266 0.22437478601932526 -0.77312517166137695
vn -0.59323978424072266 0.22437478601932526 -0.77312517166137695
vn -0.59323978424072266 0.22437478601932526 -0.77312517166137695
vn -0.59323978424072266 0.22437478601932526 -0.77312517166137695
vn -0.59323978424072266 0.22437478601932526 -0.77312517166137695
vn -0.59323978424072266 0.22437478601932526 -0.77312517166137695
vn -0.59323978424072266 0.22437478601932526 -0.77312517166137695
vn -0.53156685829162598 0.22590403258800507 -0.81633573770523071
vn -0.48703902959823608 0.2262122631072998 -0.84357631206512451
vn 0.49527671933174133 0.1486472487449646 0.85592347383499146
vn 0 0 1
vn 0 0 1
vn 0 0 1
vn 0.44882971048355103 0.16975611448287964 0.87734526395797729
vn 0 0 1
vn 0 0 1
vn 0 0 1
vn 0 0 1
vn 0 0 1
vn 0 0 1
vn 0 0 1
vn 0 0 1
vn 0 0 1
vn 0 0 1
vn 0 0 1
vn 0 0 1
vn 0 0 1
vn 0 0 1
vn 0 0 1
vn 0 0 1
vn 0 0 1
vn 0 0 1
vn 0 0 1
vn 0 0 1
vn 0 0 1
vn -0.70615494251251221 0.051869571208953857 0.70615494251251221
vn 0 0 1
vn -0.44882971048355103 0.16975611448287964 0.87734526395797729
vn 0 0 1
vn 0 0 1
vn 0 0 1
vn 0 0 1
vn 0 0 1
vn 0 0 1
vn 0 0 1
vn 0 0 1
vn 0 0 1
vn 0 0 1
vn 0 0 1
vn 0 0 1
vn 0 0 1
vn 0 0 1
vn 0 0 1
vn 0 0 1
vn 0 0 1
vn 0 0 1
vn 0 0 1
vn 0 0.2262122631072998 0.97407805919647217
vn -0.25210994482040405 0.22621224820613861 0.94088715314865112
vn 0 0.2262122631072998 0.97407805919647217
vn -0.25210994482040405 0.22621224820613861 0.94088715314865112
f 1/1/1 2/2/2 3/3/3
f 2/2/2 1/1/1 4/4/4
f 4/4/4 1/1/1 5/5/5
f 5/5/5 1/1/1 6/6/6
f 6/6/6 1/1/1 7/7/7
f 3/3/3 2/2/2 8/8/8
f 3/3/3 8/8/8 9/9/9
f 3/3/3 9/9/9 10/10/10
f 3/3/3 10/10/10 11/11/11
f 3/3/3 11/11/11 12/12/12
f 3/3/3 12/12/12 13/13/13
f 3/3/3 13/13/13 14/14/14
f 3/3/3 14/14/14 15/15/15
f 3/3/3 15/15/15 16/16/16
f 3/3/3 16/16/16 17/17/17
f 18/18/18 19/19/19 20/20/20
f 21/21/21 22/22/22 23/23/23
f 22/22/22 21/21/21 24/24/24
f 22/22/22 24/24/24 25/25/25
f 25/25/25 24/24/24 26/26/26
f 25/25/25 26/26/26 27/27/27
f 25/25/25 27/27/27 28/28/28
f 25/25/25 28/28/28 29/29/29
f 25/25/25 29/29/29 30/30/30
f 30/30/30 29/29/29 31/31/31
f 30/30/30 31/31/31 32/32/32
f 32/32/32 31/31/31 33/33/33
f 32/32/32 33/33/33 34/34/34
f 32/32/32 34/34/34 35/35/35
f 35/35/35 34/34/34 36/36/36
f 35/35/35 36/36/36 37/37/37
f 35/35/35 37/37/37 38/38/38
f 38/38/38 37/37/37 39/39/39
f 38/38/38 39/39/39 40/40/40
f 38/38/38 40/40/40 41/41/41
f 41/41/41 40/40/40 42/42/42
f 41/41/41 42/42/42 43/43/43
f 43/43/43 42/42/42 44/44/44
f 43/43/43 44/44/44 45/45/45
f 45/45/45 44/44/44 46/46/46
f 46/46/46 44/44/44 47/47/47
f 47/47/47 44/44/44 48/48/48
f 48/48/48 44/44/44 49/49/49
f 49/49/49 44/44/44 50/50/50
f 50/50/50 44/44/44 51/51/51
f 51/51/51 44/44/44 52/52/52
f 51/51/51 52/52/52 53/53/53
f 51/51/51 53/53/53 54/54/54
f 54/54/54 53/53/53 55/55/55
f 54/54/54 55/55/55 56/56/56
f 54/54/54 56/56/56 57/57/57
f 57/57/57 56/56/56 58/58/58
f 57/57/57 58/58/58 59/59/59
f 59/59/59 58/58/58 60/60/60
f 59/59/59 60/60/60 61/61/61
f 61/61/61 60/60/60 62/62/62
f 61/61/61 62/62/62 63/63/63
f 63/63/63 62/62/62 64/64/64
f 63/63/63 64/64/64 65/65/65
f 63/63/63 65/65/65 66/66/66
f 63/63/63 66/66/66 67/67/67
f 63/63/63 67/67/67 19/19/19
f 63/63/63 19/19/19 18/18/18
f 68/68/68 69/69/69 70/70/70
f 71/71/71 17/72/72 16/73/73
f 17/72/72 71/71/71 72/74/74
f 17/72/72 72/74/74 73/75/75
f 17/72/72 73/75/75 74/76/76
f 17/72/72 74/76/76 75/77/77
f 17/72/72 75/77/77 69/69/69
f 17/72/72 69/69/69 68/68/68
f 76/78/78 77/79/79 78/80/80
f 77/79/79 76/78/78 79/81/81
f 79/81/81 76/78/78 80/82/82
f 80/82/82 76/78/78 81/83/83
f 81/83/83 76/78/78 82/84/84
f 81/83/83 82/84/84 83/85/85
f 83/85/85 82/84/84 84/86/86
f 84/86/86 82/84/84 85/87/87
f 85/87/87 82/84/84 86/88/88
f 86/88/88 82/84/84 87/89/89
f 87/89/89 82/84/84 88/90/90
f 88/90/90 82/84/84 89/91/91
f 89/91/91 82/84/84 90/92/92
f 90/92/92 82/84/84 91/93/93
f 91/93/93 82/84/84 92/94/94
f 93/95/95 94/96/96 95/97/97
f 94/96/96 93/95/95 96/98/98
f 97/99/99 18/100/100 98/101/101
f 18/100/100 97/99/99 63/102/102
f 63/102/102 97/99/99 1/103/103
f 1/103/103 97/99/99 7/104/104
f 7/104/104 97/99/99 99/105/105
f 7/104/104 99/105/105 100/106/106
f 7/104/104 100/106/106 101/107/107
f 7/104/104 101/107/107 102/108/108
f 7/104/104 102/108/108 103/109/109
f 7/104/104 103/109/109 104/110/110
f 7/104/104 104/110/110 105/111/111
f 7/104/104 105/111/111 106/112/112
f 7/104/104 106/112/112 107/113/113
f 7/104/104 107/113/113 108/114/114
f 7/104/104 108/114/114 109/115/115
f 7/104/104 109/115/115 110/116/116
f 7/104/104 110/116/116 111/117/117
f 111/117/117 110/116/116 112/118/118
f 112/118/118 110/116/116 113/119/119
f 113/119/119 110/116/116 114/120/120
f 114/120/120 110/116/116 115/121/121
f 115/121/121 110/116/116 116/122/122
f 116/122/122 110/116/116 117/123/123
f 116/122/122 117/123/123 118/124/124
f 118/124/124 117/123/123 119/125/125
f 120/126/126 121/127/127 122/128/128
f 121/127/127 120/126/126 123/129/129
f 123/129/129 120/126/126 124/130/130
f 123/129/129 124/130/130 125/131/131
f 123/129/129 125/131/131 126/132/132
f 126/132/132 125/131/131 127/133/133
f 127/133/133 125/131/131 128/134/134
f 128/134/134 125/131/131 129/135/135
f 129/135/135 125/131/131 130/136/136
f 130/136/136 125/131/131 131/137/137
f 131/137/137 125/131/131 132/138/138
f 132/138/138 125/131/131 133/139/139
f 133/139/139 125/131/131 134/140/140
f 134/140/140 125/131/131 135/141/141
f 135/141/141 125/131/131 136/142/142
f 136/142/142 125/131/131 117/123/123
f 117/123/123 125/131/131 137/143/143
f 117/123/123 137/143/143 138/144/144
f 117/123/123 138/144/144 139/145/145
f 117/123/123 139/145/145 140/146/146
f 117/123/123 140/146/146 141/147/147
f 117/123/123 141/147/147 142/148/148
f 117/123/123 142/148/148 143/149/149
f 117/123/123 143/149/149 144/150/150
f 117/123/123 144/150/150 119/125/125
f 145/151/151 146/152/152 147/153/153
f 93/154/154 148/155/155 96/156/156
f 148/155/155 93/154/154 149/157/157
f 148/155/155 149/157/157 150/158/158
f 148/155/155 150/158/158 151/159/159
f 148/155/155 151/159/159 152/160/160
f 148/155/155 152/160/160 153/161/161
f 148/155/155 153/161/161 154/162/162
f 148/155/155 154/162/162 155/163/163
f 148/155/155 155/163/163 156/164/164
f 148/155/155 156/164/164 157/165/165
f 158/166/166 159/167/167 160/168/168
f 159/167/167 158/166/166 161/169/169
f 161/169/169 158/166/166 162/170/170
f 162/170/170 158/166/166 163/171/171
f 163/171/171 158/166/166 164/172/172
f 160/168/168 159/167/167 165/173/173
f 160/168/168 165/173/173 166/174/174
f 160/168/168 166/174/174 167/175/175
f 160/168/168 167/175/175 168/176/176
f 160/168/168 168/176/176 169/177/177
f 160/168/168 169/177/177 170/178/178
f 160/168/168 170/178/178 171/179/179
f 160/168/168 171/179/179 172/180/180
f 160/168/168 172/180/180 173/181/181
f 160/168/168 173/181/181 174/182/182
f 160/168/168 174/182/182 175/183/183
f 176/184/184 177/185/185 178/186/186
f 177/185/185 176/184/184 179/187/187
f 177/185/185 179/187/187 180/188/188
f 180/188/188 179/187/187 181/189/189
f 181/189/189 179/187/187 182/190/190
f 182/190/190 179/187/187 183/191/191
f 183/191/191 179/187/187 184/192/192
f 184/192/192 179/187/187 185/193/193
f 184/192/192 185/193/193 186/194/194
f 186/194/194 185/193/193 187/195/195
f 187/195/195 185/193/193 188/196/196
f 188/196/196 185/193/193 189/197/197
f 189/197/197 185/193/193 190/198/198
f 190/198/198 185/193/193 191/199/199
f 192/200/200 193/201/201 194/202/202
f 193/201/201 192/200/200 195/203/203
f 195/203/203 192/200/200 196/204/204
f 195/203/203 196/204/204 197/205/205
f 197/205/205 196/204/204 160/206/206
f 197/205/205 160/206/206 198/207/207
f 198/207/207 160/206/206 175/208/208
f 198/207/207 175/208/208 199/209/209
f 199/209/209 175/208/208 176/184/184
f 199/209/209 176/184/184 178/186/186
f 199/209/209 178/186/186 200/210/210
f 199/209/209 200/210/210 201/211/211
f 201/211/211 200/210/210 202/212/212
f 201/211/211 202/212/212 203/213/213
f 201/211/211 203/213/213 204/214/214
f 201/211/211 204/214/214 205/215/215
f 201/211/211 205/215/215 206/216/216
f 201/211/211 206/216/216 68/217/217
f 68/217/217 206/216/216 207/218/218
f 68/217/217 207/218/218 208/219/219
f 68/217/217 208/219/219 209/220/220
f 68/217/217 209/220/220 210/221/221
f 68/217/217 210/221/221 211/222/222
f 68/217/217 211/222/222 191/199/199
f 68/217/217 191/199/199 185/193/193
f 68/217/217 185/193/193 92/223/223
f 68/217/217 92/223/223 17/224/224
f 17/224/224 92/223/223 82/225/225
f 17/224/224 82/225/225 3/226/226
f 3/226/226 82/225/225 212/227/227
f 3/226/226 212/227/227 148/228/228
f 148/228/228 212/227/227 96/229/229
f 96/229/229 212/227/227 213/230/230
f 96/229/229 213/230/230 94/231/231
f 214/232/232 215/233/233 158/234/234
f 215/233/233 214/232/232 216/235/235
f 216/235/235 214/232/232 217/236/236
f 217/236/236 214/232/232 218/237/237
f 218/237/237 214/232/232 219/238/238
f 219/238/238 214/232/232 220/239/239
f 219/238/238 220/239/239 221/240/240
f 221/240/240 220/239/239 222/241/241
f 221/240/240 222/241/241 223/242/242
f 223/242/242 222/241/241 224/243/243
f 224/243/243 222/241/241 225/244/244
f 224/243/243 225/244/244 226/245/245
f 226/245/245 225/244/244 227/246/246
f 227/246/246 225/244/244 228/247/247
f 227/246/246 228/247/247 229/248/248
f 229/248/248 228/247/247 230/249/249
f 230/249/249 228/247/247 231/250/250
f 230/249/249 231/250/250 232/251/251
f 232/251/251 231/250/250 233/252/252
f 232/251/251 233/252/252 234/253/253
f 234/253/253 233/252/252 235/254/254
f 234/253/253 235/254/254 236/255/255
f 234/253/253 236/255/255 237/256/256
f 234/253/253 237/256/256 238/257/257
f 234/253/253 238/257/257 239/258/258
f 234/253/253 239/258/258 240/259/259
f 234/253/253 240/259/259 241/260/260
f 234/253/253 241/260/260 242/261/261
f 242/261/261 241/260/260 243/262/262
f 243/262/262 241/260/260 244/263/263
f 243/262/262 244/263/263 245/264/264
f 245/264/264 244/263/263 246/265/265
f 246/265/265 244/263/263 247/266/266
f 246/265/265 247/266/266 248/267/267
f 248/267/267 247/266/266 249/268/268
f 248/267/267 249/268/268 250/269/269
f 250/269/269 249/268/268 251/270/270
f 250/269/269 251/270/270 252/271/271
f 252/271/271 251/270/270 253/272/272
f 252/271/271 253/272/272 254/273/273
f 254/273/273 253/272/272 255/274/274
f 255/274/274 253/272/272 256/275/275
f 256/275/275 253/272/272 257/276/276
f 257/276/276 253/272/272 258/277/277
f 258/277/277 253/272/272 259/278/278
f 259/278/278 253/272/272 260/279/279
f 261/280/280 158/234/234 215/233/233
f 22/281/281 262/282/282 23/283/283
f 196/284/284 263/285/285 264/286/286
f 263/285/285 196/284/284 265/287/287
f 265/287/287 196/284/284 266/288/288
f 266/288/288 196/284/284 267/289/289
f 267/289/289 196/284/284 192/290/290
f 198/291/291 268/292/292 269/293/293
f 268/292/292 198/291/291 270/294/294
f 270/294/294 198/291/291 271/295/295
f 271/295/295 198/291/291 272/296/296
f 272/296/296 198/291/291 273/297/297
f 273/297/297 199/298/298 274/299/299
f 199/298/298 273/297/297 198/291/291
f 63/300/300 275/301/301 61/302/302
f 275/301/301 63/300/300 276/303/303
f 276/303/303 63/300/300 277/304/304
f 157/305/305 3/306/306 148/307/307
f 3/306/306 157/305/305 278/308/308
f 3/306/306 278/308/308 279/309/309
f 3/306/306 279/309/309 280/310/310
f 3/306/306 280/310/310 281/311/311
f 3/306/306 281/311/311 282/312/312
f 3/306/306 282/312/312 283/313/313
f 3/306/306 283/313/313 1/314/314
f 1/314/314 283/313/313 277/304/304
f 1/314/314 277/304/304 63/300/300
f 192/315/315 284/316/316 267/317/317
f 284/316/316 192/315/315 194/318/318
f 92/319/319 285/320/320 91/321/321
f 285/320/320 92/319/319 286/322/322
f 286/322/322 92/319/319 287/323/323
f 287/323/323 92/319/319 288/324/324
f 288/324/324 92/319/319 289/325/325
f 289/325/325 92/319/319 290/326/326
f 290/326/326 92/319/319 291/327/327
f 291/327/327 92/319/319 185/328/328
f 146/329/329 120/330/330 122/331/331
f 120/330/330 146/329/329 145/332/332
f 201/333/333 70/334/334 292/335/335
f 70/334/334 201/333/333 68/336/336
f 193/337/337 284/338/338 194/339/339
f 284/338/338 193/337/337 293/340/340
f 22/341/341 294/342/342 295/343/343
f 294/342/342 22/341/341 296/344/344
f 296/344/344 22/341/341 297/345/345
f 297/345/345 22/341/341 298/346/346
f 298/346/346 22/341/341 25/347/347
f 76/348/348 22/341/341 82/349/349
f 22/341/341 76/348/348 262/350/350
f 82/349/349 22/341/341 299/351/351
f 299/351/351 22/341/341 295/343/343
f 82/349/349 299/351/351 300/352/352
f 82/349/349 300/352/352 301/353/353
f 82/349/349 301/353/353 302/354/354
f 82/349/349 302/354/354 303/355/355
f 82/349/349 303/355/355 304/356/356
f 82/349/349 304/356/356 305/357/357
f 82/349/349 305/357/357 212/358/358
f 212/358/358 305/357/357 306/359/359
f 212/358/358 306/359/359 307/360/360
f 212/358/358 307/360/360 308/361/361
f 212/358/358 308/361/361 309/362/362
f 158/363/363 310/364/364 311/365/365
f 310/364/364 158/363/363 160/366/366
f 310/364/364 160/366/366 312/367/367
f 312/367/367 160/366/366 313/368/368
f 313/368/368 160/366/366 314/369/369
f 314/369/369 160/366/366 315/370/370
f 315/370/370 160/366/366 316/371/371
f 316/371/371 160/366/366 317/372/372
f 317/372/372 160/366/366 196/373/373
f 317/372/372 196/373/373 318/374/374
f 318/374/374 196/373/373 319/375/375
f 319/375/375 196/373/373 320/376/376
f 320/376/376 196/373/373 264/377/377
f 158/363/363 321/378/378 214/379/379
f 321/378/378 158/363/363 322/380/380
f 322/380/380 158/363/363 323/381/381
f 323/381/381 158/363/363 324/382/382
f 324/382/382 158/363/363 311/365/365
f 195/383/383 293/384/384 193/385/385
f 293/384/384 195/383/383 325/386/386
f 325/386/386 195/383/383 326/387/387
f 326/387/387 195/383/383 327/388/388
f 327/388/388 195/383/383 328/389/389
f 328/389/389 195/383/383 329/390/390
f 329/390/390 195/383/383 330/391/391
f 330/391/391 195/383/383 331/392/392
f 331/392/392 195/383/383 332/393/393
f 332/393/393 195/383/383 333/394/394
f 185/395/395 334/396/396 291/397/397
f 334/396/396 185/395/395 179/398/398
f 197/399/399 333/400/400 195/401/401
f 333/400/400 197/399/399 335/402/402
f 335/402/402 197/399/399 336/403/403
f 336/403/403 197/399/399 337/404/404
f 337/404/404 197/399/399 338/405/405
f 338/405/405 197/399/399 339/406/406
f 339/406/406 197/399/399 340/407/407
f 340/407/407 197/399/399 124/408/408
f 340/407/407 124/408/408 341/409/409
f 342/410/410 253/411/411 251/412/412
f 253/411/411 342/410/410 343/413/413
f 253/411/411 343/413/413 341/409/409
f 253/411/411 341/409/409 124/408/408
f 253/411/411 124/408/408 120/414/414
f 253/411/411 120/414/414 145/415/415
f 253/411/411 145/415/415 344/416/416
f 344/416/416 145/415/415 147/417/417
f 176/418/418 345/419/419 346/420/420
f 347/421/421 175/422/422 174/423/423
f 175/422/422 347/421/421 348/424/424
f 175/422/422 348/424/424 349/425/425
f 175/422/422 349/425/425 350/426/426
f 175/422/422 350/426/426 345/419/419
f 175/422/422 345/419/419 176/418/418
f 253/427/427 344/428/428 260/429/429
f 199/430/430 292/431/431 274/432/432
f 292/431/431 199/430/430 201/433/433
f 95/434/434 213/435/435 351/436/436
f 213/435/435 95/434/434 94/437/437
f 352/438/438 212/439/439 309/440/440
f 212/439/439 352/438/438 353/441/441
f 212/439/439 353/441/441 354/442/442
f 212/439/439 354/442/442 351/443/443
f 212/439/439 351/443/443 213/444/444
f 124/445/445 355/446/446 125/447/447
f 355/446/446 124/445/445 356/448/448
f 356/448/448 124/445/445 357/449/449
f 357/449/449 124/445/445 358/450/450
f 358/450/450 124/445/445 197/451/451
f 358/450/450 197/451/451 359/452/452
f 359/452/452 197/451/451 360/453/453
f 360/453/453 197/451/451 361/454/454
f 361/454/454 197/451/451 362/455/455
f 362/455/455 197/451/451 363/456/456
f 363/456/456 197/451/451 364/457/457
f 364/457/457 197/451/451 365/458/458
f 365/458/458 197/451/451 366/459/459
f 366/459/459 197/451/451 367/460/460
f 367/460/460 197/451/451 269/461/461
f 269/461/461 197/451/451 198/462/462
f 76/463/463 368/464/464 369/465/465
f 368/464/464 76/463/463 370/466/466
f 370/466/466 76/463/463 78/467/467
f 370/466/466 78/467/467 371/468/468
f 371/468/468 78/467/467 372/469/469
f 372/469/469 78/467/467 373/470/470
f 373/470/470 78/467/467 374/471/471
f 374/471/471 78/467/467 375/472/472
f 375/472/472 78/467/467 376/473/473
f 376/473/473 78/467/467 377/474/474
f 377/474/474 78/467/467 378/475/475
f 378/475/475 78/467/467 379/476/476
f 379/476/476 78/467/467 380/477/477
f 380/477/477 78/467/467 381/478/478
f 381/478/478 78/467/467 382/479/479
f 381/478/478 382/479/479 383/480/480
f 381/478/478 383/480/480 384/481/481
f 381/478/478 384/481/481 385/482/482
f 381/478/478 385/482/482 386/483/483
f 381/478/478 386/483/483 387/484/484
f 381/478/478 387/484/484 388/485/485
f 388/485/485 387/484/484 389/486/486
f 388/485/485 389/486/486 390/487/487
f 391/488/488 158/489/489 392/490/490
f 158/489/489 391/488/488 164/491/491
f 164/491/491 391/488/488 393/492/492
f 164/491/491 393/492/492 394/493/493
f 164/491/491 394/493/493 395/494/494
f 164/491/491 395/494/494 396/495/495
f 164/491/491 396/495/495 397/496/496
f 164/491/491 397/496/496 398/497/497
f 164/491/491 398/497/497 399/498/498
f 164/491/491 399/498/498 400/499/499
f 164/491/491 400/499/499 401/500/500
f 164/491/491 401/500/500 402/501/501
f 164/491/491 402/501/501 403/502/502
f 164/491/491 403/502/502 388/485/485
f 164/491/491 388/485/485 404/503/503
f 404/503/503 388/485/485 405/504/504
f 405/504/504 388/485/485 406/505/505
f 406/505/505 388/485/485 407/506/506
f 407/506/506 388/485/485 408/507/507
f 408/507/507 388/485/485 409/508/508
f 409/508/508 388/485/485 410/509/509
f 410/509/509 388/485/485 411/510/510
f 411/510/510 388/485/485 390/487/487
f 179/511/511 346/512/512 334/513/513
f 346/512/512 179/511/511 176/514/514
