# 攤位 2.5D 模型 — 由 export_stall_models.js 自動產生，來源 99_website/stall_models/js/*.js
# 造型類型「cart」，示範尺寸 W=2.5m D=2m
# 座標：1 單位=1 公尺，X=沿店面寬度(含插槽位移)、Z=垂直店面方向(0=街道側)、Y=高度(Y-up)。
# group 命名／新增造型規則見 99_website/tools/README.md，改完用 import_stall_models.js 讀回來。
mtllib cart.mtl
v -0.35 0.75 -0.2
v 0.35 0.75 -0.2
v 0.35 0.75 0.2
v -0.35 0.75 0.2
v -0.35 0.85 -0.2
v 0.35 0.85 -0.2
v 0.35 0.85 0.2
v -0.35 0.85 0.2
v -0.34 0 -0.18
v -0.22 0 -0.18
v -0.22 0 -0.06
v -0.34 0 -0.06
v -0.34 0.75 -0.18
v -0.22 0.75 -0.18
v -0.22 0.75 -0.06
v -0.34 0.75 -0.06
v 0.22 0 -0.18
v 0.34 0 -0.18
v 0.34 0 -0.06
v 0.22 0 -0.06
v 0.22 0.75 -0.18
v 0.34 0.75 -0.18
v 0.34 0.75 -0.06
v 0.22 0.75 -0.06
v -0.34 0 0.06
v -0.22 0 0.06
v -0.22 0 0.18
v -0.34 0 0.18
v -0.34 0.75 0.06
v -0.22 0.75 0.06
v -0.22 0.75 0.18
v -0.34 0.75 0.18
v 0.22 0 0.06
v 0.34 0 0.06
v 0.34 0 0.18
v 0.22 0 0.18
v 0.22 0.75 0.06
v 0.34 0.75 0.06
v 0.34 0.75 0.18
v 0.22 0.75 0.18
v 0 0 0
v 0.3 0 0
v 0.3 0 0.3
v 0 0 0.3
v 0 0.3 0
v 0.3 0.3 0
v 0.3 0.3 0.3
v 0 0.3 0.3
g tile_tableTop
usemtl mat_ACCENT
f 1 2 3 4
f 5 6 7 8
f 1 2 6 5
f 2 3 7 6
f 3 4 8 7
f 4 1 5 8
g tile_legFrontLeft
usemtl mat_6b4a2a
f 9 10 11 12
f 13 14 15 16
f 9 10 14 13
f 10 11 15 14
f 11 12 16 15
f 12 9 13 16
g tile_legFrontRight
usemtl mat_6b4a2a
f 17 18 19 20
f 21 22 23 24
f 17 18 22 21
f 18 19 23 22
f 19 20 24 23
f 20 17 21 24
g tile_legBackLeft
usemtl mat_6b4a2a
f 25 26 27 28
f 29 30 31 32
f 25 26 30 29
f 26 27 31 30
f 27 28 32 31
f 28 25 29 32
g tile_legBackRight
usemtl mat_6b4a2a
f 33 34 35 36
f 37 38 39 40
f 33 34 38 37
f 34 35 39 38
f 35 36 40 39
f 36 33 37 40
g frontMarker
usemtl mat_MARKER
f 41 42 43 44
f 45 46 47 48
f 41 42 46 45
f 42 43 47 46
f 43 44 48 47
f 44 41 45 48
