# Rhino

g ___01
o object_1
v 0 0 -2.7999999523162842
v 0 3 -2.7999999523162842
v 4 0 -2.7999999523162842
v 4 3 -2.7999999523162842
vt 0 0
vt 0 1
vt 1 0
vt 1 1
vn 0 0 1
vn 0 0 1
vn 0 0 1
vn 0 0 1
f 4/4/4 2/2/2 1/1/1 3/3/3
o object_2
v 0.10000000149011612 0.10000000149011612 0
v 0.10000000149011612 2.9000000953674316 0
v 3.9000000953674316 0.10000000149011612 0
v 3.9000000953674316 2.9000000953674316 0
vt 0 0
vt 0 1
vt 1 0
vt 1 1
vn 0 0 1
vn 0 0 1
vn 0 0 1
vn 0 0 1
f 8/8/8 6/6/6 5/5/5 7/7/7
o frontMarker
v 0 0 0
v 0.29999999999999999 0 0
v 0.29999999999999999 0.29999999999999999 0
v 0 0.29999999999999999 0
v 0 0 -0.29999999999999999
v 0.29999999999999999 0 -0.29999999999999999
v 0.29999999999999999 0.29999999999999999 -0.29999999999999999
v 0 0.29999999999999999 -0.29999999999999999
vn -0.57735025882720947 -0.57735025882720947 -0.57735025882720947
vn 0.57735025882720947 -0.57735025882720947 -0.57735025882720947
vn 0.57735025882720947 0.57735025882720947 -0.57735025882720947
vn -0.57735025882720947 0.57735025882720947 -0.57735025882720947
vn -0.57735025882720947 -0.57735025882720947 -0.57735025882720947
vn 0.57735025882720947 -0.57735025882720947 -0.57735025882720947
vn 0.57735025882720947 0.57735025882720947 -0.57735025882720947
vn -0.57735025882720947 0.57735025882720947 -0.57735025882720947
f 9//9 12//12 11//11 10//10
f 13//13 16//16 15//15 14//14
f 9//9 13//13 14//14 10//10
f 10//10 14//14 15//15 11//11
f 11//11 15//15 16//16 12//12
f 12//12 16//16 13//13 9//9
o door
v 0.5 -0.029999999999999999 -0.050000000000000003
v 3.5 -0.029999999999999999 -0.050000000000000003
v 3.5 0.029999999999999999 -0.050000000000000003
v 0.5 0.029999999999999999 -0.050000000000000003
v 0.5 -0.029999999999999999 -2.25
v 3.5 -0.029999999999999999 -2.25
v 3.5 0.029999999999999999 -2.25
v 0.5 0.029999999999999999 -2.25
vn -0.57735025882720947 -0.57735025882720947 -0.57735025882720947
vn 0.57735025882720947 -0.57735025882720947 -0.57735025882720947
vn 0.57735025882720947 0.57735025882720947 -0.57735025882720947
vn -0.57735025882720947 0.57735025882720947 -0.57735025882720947
vn -0.57735025882720947 -0.57735025882720947 -0.57735025882720947
vn 0.57735025882720947 -0.57735025882720947 -0.57735025882720947
vn 0.57735025882720947 0.57735025882720947 -0.57735025882720947
vn -0.57735025882720947 0.57735025882720947 -0.57735025882720947
f 17//17 20//20 19//19 18//18
f 21//21 24//24 23//23 22//22
f 17//17 21//21 22//22 18//18
f 18//18 22//22 23//23 19//19
f 19//19 23//23 24//24 20//20
f 20//20 24//24 21//21 17//17
o doorFrame
v 0.5 -0.050000000000000003 -2.2999999999999998
v 3.5 -0.050000000000000003 -2.2999999999999998
v 3.5 0.050000000000000003 -2.2999999999999998
v 0.5 0.050000000000000003 -2.2999999999999998
v 0.5 -0.050000000000000003 -2.6499999999999999
v 3.5 -0.050000000000000003 -2.6499999999999999
v 3.5 0.050000000000000003 -2.6499999999999999
v 0.5 0.050000000000000003 -2.6499999999999999
vn -0.57735025882720947 -0.57735025882720947 -0.57735025882720947
vn 0.57735025882720947 -0.57735025882720947 -0.57735025882720947
vn 0.57735025882720947 0.57735025882720947 -0.57735025882720947
vn -0.57735025882720947 0.57735025882720947 -0.57735025882720947
vn -0.57735025882720947 -0.57735025882720947 -0.57735025882720947
vn 0.57735025882720947 -0.57735025882720947 -0.57735025882720947
vn 0.57735025882720947 0.57735025882720947 -0.57735025882720947
vn -0.57735025882720947 0.57735025882720947 -0.57735025882720947
f 25//25 28//28 27//27 26//26
f 29//29 32//32 31//31 30//30
f 25//25 29//29 30//30 26//26
f 26//26 30//30 31//31 27//27
f 27//27 31//31 32//32 28//28
f 28//28 32//32 29//29 25//25
o roof
v 0 0 -2.7999999999999998
v 4 0 -2.7999999999999998
v 4 3 -2.7999999999999998
v 0 3 -2.7999999999999998
v 0 0 -3
v 4 0 -3
v 4 3 -3
v 0 3 -3
vn -0.57735025882720947 -0.57735025882720947 -0.57735025882720947
vn 0.57735025882720947 -0.57735025882720947 -0.57735025882720947
vn 0.57735025882720947 0.57735025882720947 -0.57735025882720947
vn -0.57735025882720947 0.57735025882720947 -0.57735025882720947
vn -0.57735025882720947 -0.57735025882720947 -0.57735025882720947
vn 0.57735025882720947 -0.57735025882720947 -0.57735025882720947
vn 0.57735025882720947 0.57735025882720947 -0.57735025882720947
vn -0.57735025882720947 0.57735025882720947 -0.57735025882720947
f 33//33 36//36 35//35 34//34
f 37//37 40//40 39//39 38//38
f 33//33 37//37 38//38 34//34
f 34//34 38//38 39//39 35//35
f 35//35 39//39 40//40 36//36
f 36//36 40//40 37//37 33//33
o body
v 0.10000000000000001 0.10000000000000001 0
v 3.8999999999999999 0.10000000000000001 0
v 3.8999999999999999 2.8999999999999999 0
v 0.10000000000000001 2.8999999999999999 0
v 0.10000000000000001 0.10000000000000001 -2.7999999999999998
v 3.8999999999999999 0.10000000000000001 -2.7999999999999998
v 3.8999999999999999 2.8999999999999999 -2.7999999999999998
v 0.10000000000000001 2.8999999999999999 -2.7999999999999998
vn -0.57735025882720947 -0.57735025882720947 -0.57735025882720947
vn 0.57735025882720947 -0.57735025882720947 -0.57735025882720947
vn 0.57735025882720947 0.57735025882720947 -0.57735025882720947
vn -0.57735025882720947 0.57735025882720947 -0.57735025882720947
vn -0.57735025882720947 -0.57735025882720947 -0.57735025882720947
vn 0.57735025882720947 -0.57735025882720947 -0.57735025882720947
vn 0.57735025882720947 0.57735025882720947 -0.57735025882720947
vn -0.57735025882720947 0.57735025882720947 -0.57735025882720947
f 41//41 44//44 43//43 42//42
f 45//45 48//48 47//47 46//46
f 41//41 45//45 46//46 42//42
f 42//42 46//46 47//47 43//43
f 43//43 47//47 48//48 44//44
f 44//44 48//48 45//45 41//41
