# 攤位 2.5D 模型 — 由 export_stall_models.js 自動產生，來源 99_website/stall_models/js/*.js
# 個別店鋪的獨立造型＋每家店鋪的地板 guide，見 tools/README.md「每家店鋪的插槽」
# 座標：1 單位=1 公尺，X=沿店面寬度(含插槽位移)、Z=垂直店面方向(0=街道側)、Y=高度(Y-up)。
# group 命名／新增造型規則見 99_website/tools/README.md，改完用 import_stall_models.js 讀回來。
mtllib overrides.mtl
v 0 0 0
v 4 0 0
v 4 0 3
v 0 0 3
v 0 0.02 0
v 4 0.02 0
v 4 0.02 3
v 0 0.02 3
v 0 0 0
v 0.3 0 0
v 0.3 0 0.3
v 0 0 0.3
v 0 0.3 0
v 0.3 0.3 0
v 0.3 0.3 0.3
v 0 0.3 0.3
v 15 0 0
v 18 0 0
v 18 0 3
v 15 0 3
v 15 0.02 0
v 18 0.02 0
v 18 0.02 3
v 15 0.02 3
v 15 0 0
v 15.3 0 0
v 15.3 0 0.3
v 15 0 0.3
v 15 0.3 0
v 15.3 0.3 0
v 15.3 0.3 0.3
v 15 0.3 0.3
v 30 0 0
v 35 0 0
v 35 0 3
v 30 0 3
v 30 0.02 0
v 35 0.02 0
v 35 0.02 3
v 30 0.02 3
v 30 0 0
v 30.3 0 0
v 30.3 0 0.3
v 30 0 0.3
v 30 0.3 0
v 30.3 0.3 0
v 30.3 0.3 0.3
v 30 0.3 0.3
v 45 0 0
v 50 0 0
v 50 0 3
v 45 0 3
v 45 0.02 0
v 50 0.02 0
v 50 0.02 3
v 45 0.02 3
v 45 0 0
v 45.3 0 0
v 45.3 0 0.3
v 45 0 0.3
v 45 0.3 0
v 45.3 0.3 0
v 45.3 0.3 0.3
v 45 0.3 0.3
v 60 0 0
v 63 0 0
v 63 0 1
v 60 0 1
v 60 0.02 0
v 63 0.02 0
v 63 0.02 1
v 60 0.02 1
v 60 0 0
v 60.3 0 0
v 60.3 0 0.3
v 60 0 0.3
v 60 0.3 0
v 60.3 0.3 0
v 60.3 0.3 0.3
v 60 0.3 0.3
v 75 0 0
v 78 0 0
v 78 0 3
v 75 0 3
v 75 0.02 0
v 78 0.02 0
v 78 0.02 3
v 75 0.02 3
v 75 0 0
v 75.3 0 0
v 75.3 0 0.3
v 75 0 0.3
v 75 0.3 0
v 75.3 0.3 0
v 75.3 0.3 0.3
v 75 0.3 0.3
v 90 0 0
v 97 0 0
v 97 0 3
v 90 0 3
v 90 0.02 0
v 97 0.02 0
v 97 0.02 3
v 90 0.02 3
v 90 0 0
v 90.3 0 0
v 90.3 0 0.3
v 90 0 0.3
v 90 0.3 0
v 90.3 0.3 0
v 90.3 0.3 0.3
v 90 0.3 0.3
v 105 0 0
v 109 0 0
v 109 0 3
v 105 0 3
v 105 0.02 0
v 109 0.02 0
v 109 0.02 3
v 105 0.02 3
v 105 0 0
v 105.3 0 0
v 105.3 0 0.3
v 105 0 0.3
v 105 0.3 0
v 105.3 0.3 0
v 105.3 0.3 0.3
v 105 0.3 0.3
v 120 0 0
v 125 0 0
v 125 0 3
v 120 0 3
v 120 0.02 0
v 125 0.02 0
v 125 0.02 3
v 120 0.02 3
v 120 0 0
v 120.3 0 0
v 120.3 0 0.3
v 120 0 0.3
v 120 0.3 0
v 120.3 0.3 0
v 120.3 0.3 0.3
v 120 0.3 0.3
v 135 0 0
v 140 0 0
v 140 0 3
v 135 0 3
v 135 0.02 0
v 140 0.02 0
v 140 0.02 3
v 135 0.02 3
v 135 0 0
v 135.3 0 0
v 135.3 0 0.3
v 135 0 0.3
v 135 0.3 0
v 135.3 0.3 0
v 135.3 0.3 0.3
v 135 0.3 0.3
v 150 0 0
v 154 0 0
v 154 0 1
v 150 0 1
v 150 0.02 0
v 154 0.02 0
v 154 0.02 1
v 150 0.02 1
v 150 0 0
v 150.3 0 0
v 150.3 0 0.3
v 150 0 0.3
v 150 0.3 0
v 150.3 0.3 0
v 150.3 0.3 0.3
v 150 0.3 0.3
v 165 0 0
v 170 0 0
v 170 0 2
v 165 0 2
v 165 0.02 0
v 170 0.02 0
v 170 0.02 2
v 165 0.02 2
v 165 0 0
v 165.3 0 0
v 165.3 0 0.3
v 165 0 0.3
v 165 0.3 0
v 165.3 0.3 0
v 165.3 0.3 0.3
v 165 0.3 0.3
v 180 0 0
v 182 0 0
v 182 0 3
v 180 0 3
v 180 0.02 0
v 182 0.02 0
v 182 0.02 3
v 180 0.02 3
v 180 0 0
v 180.3 0 0
v 180.3 0 0.3
v 180 0 0.3
v 180 0.3 0
v 180.3 0.3 0
v 180.3 0.3 0.3
v 180 0.3 0.3
v 195 0 0
v 198 0 0
v 198 0 2
v 195 0 2
v 195 0.02 0
v 198 0.02 0
v 198 0.02 2
v 195 0.02 2
v 195 0 0
v 195.3 0 0
v 195.3 0 0.3
v 195 0 0.3
v 195 0.3 0
v 195.3 0.3 0
v 195.3 0.3 0.3
v 195 0.3 0.3
v 210 0 0
v 215 0 0
v 215 0 3
v 210 0 3
v 210 0.02 0
v 215 0.02 0
v 215 0.02 3
v 210 0.02 3
v 210 0 0
v 210.3 0 0
v 210.3 0 0.3
v 210 0 0.3
v 210 0.3 0
v 210.3 0.3 0
v 210.3 0.3 0.3
v 210 0.3 0.3
v 225 0 0
v 230 0 0
v 230 0 3
v 225 0 3
v 225 0.02 0
v 230 0.02 0
v 230 0.02 3
v 225 0.02 3
v 225 0 0
v 225.3 0 0
v 225.3 0 0.3
v 225 0 0.3
v 225 0.3 0
v 225.3 0.3 0
v 225.3 0.3 0.3
v 225 0.3 0.3
v 240 0 0
v 244 0 0
v 244 0 4
v 240 0 4
v 240 0.02 0
v 244 0.02 0
v 244 0.02 4
v 240 0.02 4
v 240 0 0
v 240.3 0 0
v 240.3 0 0.3
v 240 0 0.3
v 240 0.3 0
v 240.3 0.3 0
v 240.3 0.3 0.3
v 240 0.3 0.3
v 255 0 0
v 259 0 0
v 259 0 3
v 255 0 3
v 255 0.02 0
v 259 0.02 0
v 259 0.02 3
v 255 0.02 3
v 255 0 0
v 255.3 0 0
v 255.3 0 0.3
v 255 0 0.3
v 255 0.3 0
v 255.3 0.3 0
v 255.3 0.3 0.3
v 255 0.3 0.3
v 270 0 0
v 275 0 0
v 275 0 3
v 270 0 3
v 270 0.02 0
v 275 0.02 0
v 275 0.02 3
v 270 0.02 3
v 270 0 0
v 270.3 0 0
v 270.3 0 0.3
v 270 0 0.3
v 270 0.3 0
v 270.3 0.3 0
v 270.3 0.3 0.3
v 270 0.3 0.3
v 285 0 0
v 290 0 0
v 290 0 3
v 285 0 3
v 285 0.02 0
v 290 0.02 0
v 290 0.02 3
v 285 0.02 3
v 285 0 0
v 285.3 0 0
v 285.3 0 0.3
v 285 0 0.3
v 285 0.3 0
v 285.3 0.3 0
v 285.3 0.3 0.3
v 285 0.3 0.3
v 300 0 0
v 304 0 0
v 304 0 3
v 300 0 3
v 300 0.02 0
v 304 0.02 0
v 304 0.02 3
v 300 0.02 3
v 300 0 0
v 300.3 0 0
v 300.3 0 0.3
v 300 0 0.3
v 300 0.3 0
v 300.3 0.3 0
v 300.3 0.3 0.3
v 300 0.3 0.3
v 315 0 0
v 320 0 0
v 320 0 3
v 315 0 3
v 315 0.02 0
v 320 0.02 0
v 320 0.02 3
v 315 0.02 3
v 315 0 0
v 315.3 0 0
v 315.3 0 0.3
v 315 0 0.3
v 315 0.3 0
v 315.3 0.3 0
v 315.3 0.3 0.3
v 315 0.3 0.3
v 330 0 0
v 335 0 0
v 335 0 3
v 330 0 3
v 330 0.02 0
v 335 0.02 0
v 335 0.02 3
v 330 0.02 3
v 330 0 0
v 330.3 0 0
v 330.3 0 0.3
v 330 0 0.3
v 330 0.3 0
v 330.3 0.3 0
v 330.3 0.3 0.3
v 330 0.3 0.3
v 345 0 0
v 350 0 0
v 350 0 3
v 345 0 3
v 345 0.02 0
v 350 0.02 0
v 350 0.02 3
v 345 0.02 3
v 345 0 0
v 345.3 0 0
v 345.3 0 0.3
v 345 0 0.3
v 345 0.3 0
v 345.3 0.3 0
v 345.3 0.3 0.3
v 345 0.3 0.3
v 360 0 0
v 365 0 0
v 365 0 3
v 360 0 3
v 360 0.02 0
v 365 0.02 0
v 365 0.02 3
v 360 0.02 3
v 360 0 0
v 360.3 0 0
v 360.3 0 0.3
v 360 0 0.3
v 360 0.3 0
v 360.3 0.3 0
v 360.3 0.3 0.3
v 360 0.3 0.3
v 375 0 0
v 379 0 0
v 379 0 3
v 375 0 3
v 375 0.02 0
v 379 0.02 0
v 379 0.02 3
v 375 0.02 3
v 375 0 0
v 375.3 0 0
v 375.3 0 0.3
v 375 0 0.3
v 375 0.3 0
v 375.3 0.3 0
v 375.3 0.3 0.3
v 375 0.3 0.3
v 390 0 0
v 395 0 0
v 395 0 2
v 390 0 2
v 390 0.02 0
v 395 0.02 0
v 395 0.02 2
v 390 0.02 2
v 390 0 0
v 390.3 0 0
v 390.3 0 0.3
v 390 0 0.3
v 390 0.3 0
v 390.3 0.3 0
v 390.3 0.3 0.3
v 390 0.3 0.3
v 405 0 0
v 410 0 0
v 410 0 2
v 405 0 2
v 405 0.02 0
v 410 0.02 0
v 410 0.02 2
v 405 0.02 2
v 405 0 0
v 405.3 0 0
v 405.3 0 0.3
v 405 0 0.3
v 405 0.3 0
v 405.3 0.3 0
v 405.3 0.3 0.3
v 405 0.3 0.3
v 420 0 0
v 424 0 0
v 424 0 2
v 420 0 2
v 420 0.02 0
v 424 0.02 0
v 424 0.02 2
v 420 0.02 2
v 420 0 0
v 420.3 0 0
v 420.3 0 0.3
v 420 0 0.3
v 420 0.3 0
v 420.3 0.3 0
v 420.3 0.3 0.3
v 420 0.3 0.3
v 435 0 0
v 438 0 0
v 438 0 3
v 435 0 3
v 435 0.02 0
v 438 0.02 0
v 438 0.02 3
v 435 0.02 3
v 435 0 0
v 435.3 0 0
v 435.3 0 0.3
v 435 0 0.3
v 435 0.3 0
v 435.3 0.3 0
v 435.3 0.3 0.3
v 435 0.3 0.3
v 450 0 0
v 453 0 0
v 453 0 3
v 450 0 3
v 450 0.02 0
v 453 0.02 0
v 453 0.02 3
v 450 0.02 3
v 450 0 0
v 450.3 0 0
v 450.3 0 0.3
v 450 0 0.3
v 450 0.3 0
v 450.3 0.3 0
v 450.3 0.3 0.3
v 450 0.3 0.3
v 465 0 0
v 468 0 0
v 468 0 3
v 465 0 3
v 465 0.02 0
v 468 0.02 0
v 468 0.02 3
v 465 0.02 3
v 465 0 0
v 465.3 0 0
v 465.3 0 0.3
v 465 0 0.3
v 465 0.3 0
v 465.3 0.3 0
v 465.3 0.3 0.3
v 465 0.3 0.3
v 480 0 0
v 485 0 0
v 485 0 3
v 480 0 3
v 480 0.02 0
v 485 0.02 0
v 485 0.02 3
v 480 0.02 3
v 480 0 0
v 480.3 0 0
v 480.3 0 0.3
v 480 0 0.3
v 480 0.3 0
v 480.3 0.3 0
v 480.3 0.3 0.3
v 480 0.3 0.3
v 495 0 0
v 498 0 0
v 498 0 3
v 495 0 3
v 495 0.02 0
v 498 0.02 0
v 498 0.02 3
v 495 0.02 3
v 495 0 0
v 495.3 0 0
v 495.3 0 0.3
v 495 0 0.3
v 495 0.3 0
v 495.3 0.3 0
v 495.3 0.3 0.3
v 495 0.3 0.3
v 510 0 0
v 513 0 0
v 513 0 3
v 510 0 3
v 510 0.02 0
v 513 0.02 0
v 513 0.02 3
v 510 0.02 3
v 510 0 0
v 510.3 0 0
v 510.3 0 0.3
v 510 0 0.3
v 510 0.3 0
v 510.3 0.3 0
v 510.3 0.3 0.3
v 510 0.3 0.3
g shopA_floorGuide
usemtl mat_GUIDE
f 1 2 3 4
f 5 6 7 8
f 1 2 6 5
f 2 3 7 6
f 3 4 8 7
f 4 1 5 8
g shopA_frontMarker
usemtl mat_MARKER
f 9 10 11 12
f 13 14 15 16
f 9 10 14 13
f 10 11 15 14
f 11 12 16 15
f 12 9 13 16
g shopA-1_floorGuide
usemtl mat_GUIDE
f 17 18 19 20
f 21 22 23 24
f 17 18 22 21
f 18 19 23 22
f 19 20 24 23
f 20 17 21 24
g shopA-1_frontMarker
usemtl mat_MARKER
f 25 26 27 28
f 29 30 31 32
f 25 26 30 29
f 26 27 31 30
f 27 28 32 31
f 28 25 29 32
g shopA-2_floorGuide
usemtl mat_GUIDE
f 33 34 35 36
f 37 38 39 40
f 33 34 38 37
f 34 35 39 38
f 35 36 40 39
f 36 33 37 40
g shopA-2_frontMarker
usemtl mat_MARKER
f 41 42 43 44
f 45 46 47 48
f 41 42 46 45
f 42 43 47 46
f 43 44 48 47
f 44 41 45 48
g shopA-3_floorGuide
usemtl mat_GUIDE
f 49 50 51 52
f 53 54 55 56
f 49 50 54 53
f 50 51 55 54
f 51 52 56 55
f 52 49 53 56
g shopA-3_frontMarker
usemtl mat_MARKER
f 57 58 59 60
f 61 62 63 64
f 57 58 62 61
f 58 59 63 62
f 59 60 64 63
f 60 57 61 64
g shopA-4_floorGuide
usemtl mat_GUIDE
f 65 66 67 68
f 69 70 71 72
f 65 66 70 69
f 66 67 71 70
f 67 68 72 71
f 68 65 69 72
g shopA-4_frontMarker
usemtl mat_MARKER
f 73 74 75 76
f 77 78 79 80
f 73 74 78 77
f 74 75 79 78
f 75 76 80 79
f 76 73 77 80
g shopB_floorGuide
usemtl mat_GUIDE
f 81 82 83 84
f 85 86 87 88
f 81 82 86 85
f 82 83 87 86
f 83 84 88 87
f 84 81 85 88
g shopB_frontMarker
usemtl mat_MARKER
f 89 90 91 92
f 93 94 95 96
f 89 90 94 93
f 90 91 95 94
f 91 92 96 95
f 92 89 93 96
g shopC_floorGuide
usemtl mat_GUIDE
f 97 98 99 100
f 101 102 103 104
f 97 98 102 101
f 98 99 103 102
f 99 100 104 103
f 100 97 101 104
g shopC_frontMarker
usemtl mat_MARKER
f 105 106 107 108
f 109 110 111 112
f 105 106 110 109
f 106 107 111 110
f 107 108 112 111
f 108 105 109 112
g shopD_floorGuide
usemtl mat_GUIDE
f 113 114 115 116
f 117 118 119 120
f 113 114 118 117
f 114 115 119 118
f 115 116 120 119
f 116 113 117 120
g shopD_frontMarker
usemtl mat_MARKER
f 121 122 123 124
f 125 126 127 128
f 121 122 126 125
f 122 123 127 126
f 123 124 128 127
f 124 121 125 128
g shopE_floorGuide
usemtl mat_GUIDE
f 129 130 131 132
f 133 134 135 136
f 129 130 134 133
f 130 131 135 134
f 131 132 136 135
f 132 129 133 136
g shopE_frontMarker
usemtl mat_MARKER
f 137 138 139 140
f 141 142 143 144
f 137 138 142 141
f 138 139 143 142
f 139 140 144 143
f 140 137 141 144
g shopF_floorGuide
usemtl mat_GUIDE
f 145 146 147 148
f 149 150 151 152
f 145 146 150 149
f 146 147 151 150
f 147 148 152 151
f 148 145 149 152
g shopF_frontMarker
usemtl mat_MARKER
f 153 154 155 156
f 157 158 159 160
f 153 154 158 157
f 154 155 159 158
f 155 156 160 159
f 156 153 157 160
g shopG_floorGuide
usemtl mat_GUIDE
f 161 162 163 164
f 165 166 167 168
f 161 162 166 165
f 162 163 167 166
f 163 164 168 167
f 164 161 165 168
g shopG_frontMarker
usemtl mat_MARKER
f 169 170 171 172
f 173 174 175 176
f 169 170 174 173
f 170 171 175 174
f 171 172 176 175
f 172 169 173 176
g shopH_floorGuide
usemtl mat_GUIDE
f 177 178 179 180
f 181 182 183 184
f 177 178 182 181
f 178 179 183 182
f 179 180 184 183
f 180 177 181 184
g shopH_frontMarker
usemtl mat_MARKER
f 185 186 187 188
f 189 190 191 192
f 185 186 190 189
f 186 187 191 190
f 187 188 192 191
f 188 185 189 192
g shopI_floorGuide
usemtl mat_GUIDE
f 193 194 195 196
f 197 198 199 200
f 193 194 198 197
f 194 195 199 198
f 195 196 200 199
f 196 193 197 200
g shopI_frontMarker
usemtl mat_MARKER
f 201 202 203 204
f 205 206 207 208
f 201 202 206 205
f 202 203 207 206
f 203 204 208 207
f 204 201 205 208
g shopJ_floorGuide
usemtl mat_GUIDE
f 209 210 211 212
f 213 214 215 216
f 209 210 214 213
f 210 211 215 214
f 211 212 216 215
f 212 209 213 216
g shopJ_frontMarker
usemtl mat_MARKER
f 217 218 219 220
f 221 222 223 224
f 217 218 222 221
f 218 219 223 222
f 219 220 224 223
f 220 217 221 224
g shopK_floorGuide
usemtl mat_GUIDE
f 225 226 227 228
f 229 230 231 232
f 225 226 230 229
f 226 227 231 230
f 227 228 232 231
f 228 225 229 232
g shopK_frontMarker
usemtl mat_MARKER
f 233 234 235 236
f 237 238 239 240
f 233 234 238 237
f 234 235 239 238
f 235 236 240 239
f 236 233 237 240
g shopL_floorGuide
usemtl mat_GUIDE
f 241 242 243 244
f 245 246 247 248
f 241 242 246 245
f 242 243 247 246
f 243 244 248 247
f 244 241 245 248
g shopL_frontMarker
usemtl mat_MARKER
f 249 250 251 252
f 253 254 255 256
f 249 250 254 253
f 250 251 255 254
f 251 252 256 255
f 252 249 253 256
g shopM_floorGuide
usemtl mat_GUIDE
f 257 258 259 260
f 261 262 263 264
f 257 258 262 261
f 258 259 263 262
f 259 260 264 263
f 260 257 261 264
g shopM_frontMarker
usemtl mat_MARKER
f 265 266 267 268
f 269 270 271 272
f 265 266 270 269
f 266 267 271 270
f 267 268 272 271
f 268 265 269 272
g shopN_floorGuide
usemtl mat_GUIDE
f 273 274 275 276
f 277 278 279 280
f 273 274 278 277
f 274 275 279 278
f 275 276 280 279
f 276 273 277 280
g shopN_frontMarker
usemtl mat_MARKER
f 281 282 283 284
f 285 286 287 288
f 281 282 286 285
f 282 283 287 286
f 283 284 288 287
f 284 281 285 288
g shopO_floorGuide
usemtl mat_GUIDE
f 289 290 291 292
f 293 294 295 296
f 289 290 294 293
f 290 291 295 294
f 291 292 296 295
f 292 289 293 296
g shopO_frontMarker
usemtl mat_MARKER
f 297 298 299 300
f 301 302 303 304
f 297 298 302 301
f 298 299 303 302
f 299 300 304 303
f 300 297 301 304
g shopP_floorGuide
usemtl mat_GUIDE
f 305 306 307 308
f 309 310 311 312
f 305 306 310 309
f 306 307 311 310
f 307 308 312 311
f 308 305 309 312
g shopP_frontMarker
usemtl mat_MARKER
f 313 314 315 316
f 317 318 319 320
f 313 314 318 317
f 314 315 319 318
f 315 316 320 319
f 316 313 317 320
g shopQ-1_floorGuide
usemtl mat_GUIDE
f 321 322 323 324
f 325 326 327 328
f 321 322 326 325
f 322 323 327 326
f 323 324 328 327
f 324 321 325 328
g shopQ-1_frontMarker
usemtl mat_MARKER
f 329 330 331 332
f 333 334 335 336
f 329 330 334 333
f 330 331 335 334
f 331 332 336 335
f 332 329 333 336
g shopQ-2_floorGuide
usemtl mat_GUIDE
f 337 338 339 340
f 341 342 343 344
f 337 338 342 341
f 338 339 343 342
f 339 340 344 343
f 340 337 341 344
g shopQ-2_frontMarker
usemtl mat_MARKER
f 345 346 347 348
f 349 350 351 352
f 345 346 350 349
f 346 347 351 350
f 347 348 352 351
f 348 345 349 352
g shopQ-3_floorGuide
usemtl mat_GUIDE
f 353 354 355 356
f 357 358 359 360
f 353 354 358 357
f 354 355 359 358
f 355 356 360 359
f 356 353 357 360
g shopQ-3_frontMarker
usemtl mat_MARKER
f 361 362 363 364
f 365 366 367 368
f 361 362 366 365
f 362 363 367 366
f 363 364 368 367
f 364 361 365 368
g shopR_floorGuide
usemtl mat_GUIDE
f 369 370 371 372
f 373 374 375 376
f 369 370 374 373
f 370 371 375 374
f 371 372 376 375
f 372 369 373 376
g shopR_frontMarker
usemtl mat_MARKER
f 377 378 379 380
f 381 382 383 384
f 377 378 382 381
f 378 379 383 382
f 379 380 384 383
f 380 377 381 384
g shopS_floorGuide
usemtl mat_GUIDE
f 385 386 387 388
f 389 390 391 392
f 385 386 390 389
f 386 387 391 390
f 387 388 392 391
f 388 385 389 392
g shopS_frontMarker
usemtl mat_MARKER
f 393 394 395 396
f 397 398 399 400
f 393 394 398 397
f 394 395 399 398
f 395 396 400 399
f 396 393 397 400
g shopT_floorGuide
usemtl mat_GUIDE
f 401 402 403 404
f 405 406 407 408
f 401 402 406 405
f 402 403 407 406
f 403 404 408 407
f 404 401 405 408
g shopT_frontMarker
usemtl mat_MARKER
f 409 410 411 412
f 413 414 415 416
f 409 410 414 413
f 410 411 415 414
f 411 412 416 415
f 412 409 413 416
g shopU_floorGuide
usemtl mat_GUIDE
f 417 418 419 420
f 421 422 423 424
f 417 418 422 421
f 418 419 423 422
f 419 420 424 423
f 420 417 421 424
g shopU_frontMarker
usemtl mat_MARKER
f 425 426 427 428
f 429 430 431 432
f 425 426 430 429
f 426 427 431 430
f 427 428 432 431
f 428 425 429 432
g shopV_floorGuide
usemtl mat_GUIDE
f 433 434 435 436
f 437 438 439 440
f 433 434 438 437
f 434 435 439 438
f 435 436 440 439
f 436 433 437 440
g shopV_frontMarker
usemtl mat_MARKER
f 441 442 443 444
f 445 446 447 448
f 441 442 446 445
f 442 443 447 446
f 443 444 448 447
f 444 441 445 448
g shopW_floorGuide
usemtl mat_GUIDE
f 449 450 451 452
f 453 454 455 456
f 449 450 454 453
f 450 451 455 454
f 451 452 456 455
f 452 449 453 456
g shopW_frontMarker
usemtl mat_MARKER
f 457 458 459 460
f 461 462 463 464
f 457 458 462 461
f 458 459 463 462
f 459 460 464 463
f 460 457 461 464
g shopY_floorGuide
usemtl mat_GUIDE
f 465 466 467 468
f 469 470 471 472
f 465 466 470 469
f 466 467 471 470
f 467 468 472 471
f 468 465 469 472
g shopY_frontMarker
usemtl mat_MARKER
f 473 474 475 476
f 477 478 479 480
f 473 474 478 477
f 474 475 479 478
f 475 476 480 479
f 476 473 477 480
g shopZ_floorGuide
usemtl mat_GUIDE
f 481 482 483 484
f 485 486 487 488
f 481 482 486 485
f 482 483 487 486
f 483 484 488 487
f 484 481 485 488
g shopZ_frontMarker
usemtl mat_MARKER
f 489 490 491 492
f 493 494 495 496
f 489 490 494 493
f 490 491 495 494
f 491 492 496 495
f 492 489 493 496
g shop外甲1_floorGuide
usemtl mat_GUIDE
f 497 498 499 500
f 501 502 503 504
f 497 498 502 501
f 498 499 503 502
f 499 500 504 503
f 500 497 501 504
g shop外甲1_frontMarker
usemtl mat_MARKER
f 505 506 507 508
f 509 510 511 512
f 505 506 510 509
f 506 507 511 510
f 507 508 512 511
f 508 505 509 512
g shop外甲2_floorGuide
usemtl mat_GUIDE
f 513 514 515 516
f 517 518 519 520
f 513 514 518 517
f 514 515 519 518
f 515 516 520 519
f 516 513 517 520
g shop外甲2_frontMarker
usemtl mat_MARKER
f 521 522 523 524
f 525 526 527 528
f 521 522 526 525
f 522 523 527 526
f 523 524 528 527
f 524 521 525 528
g shop外甲3_floorGuide
usemtl mat_GUIDE
f 529 530 531 532
f 533 534 535 536
f 529 530 534 533
f 530 531 535 534
f 531 532 536 535
f 532 529 533 536
g shop外甲3_frontMarker
usemtl mat_MARKER
f 537 538 539 540
f 541 542 543 544
f 537 538 542 541
f 538 539 543 542
f 539 540 544 543
f 540 537 541 544
g shop外甲4_floorGuide
usemtl mat_GUIDE
f 545 546 547 548
f 549 550 551 552
f 545 546 550 549
f 546 547 551 550
f 547 548 552 551
f 548 545 549 552
g shop外甲4_frontMarker
usemtl mat_MARKER
f 553 554 555 556
f 557 558 559 560
f 553 554 558 557
f 554 555 559 558
f 555 556 560 559
f 556 553 557 560
