# 攤位 2.5D 模型 — 由 export_stall_models.js 自動產生，來源 99_website/stall_models/js/*.js
# 造型類型「semi」，示範尺寸 W=4m D=3m
# 座標：1 單位=1 公尺，X=沿店面寬度(含插槽位移)、Z=垂直店面方向(0=街道側)、Y=高度(Y-up)。
# group 命名／新增造型規則見 99_website/tools/README.md，改完用 import_stall_models.js 讀回來。
mtllib semi.mtl
v 0.15 0 0.15
v 3.85 0 0.15
v 3.85 0 2.85
v 0.15 0 2.85
v 0.15 0.75 0.15
v 3.85 0.75 0.15
v 3.85 0.75 2.85
v 0.15 0.75 2.85
v 0.1 0.75 0.1
v 3.9 0.75 0.1
v 3.9 0.75 2.9
v 0.1 0.75 2.9
v 0.1 0.9 0.1
v 3.9 0.9 0.1
v 3.9 0.9 2.9
v 0.1 0.9 2.9
v 0 0 0
v 0.1 0 0
v 0.1 0 0.1
v 0 0 0.1
v 0 2.6 0
v 0.1 2.6 0
v 0.1 2.6 0.1
v 0 2.6 0.1
v 3.9 0 0
v 4 0 0
v 4 0 0.1
v 3.9 0 0.1
v 3.9 2.6 0
v 4 2.6 0
v 4 2.6 0.1
v 3.9 2.6 0.1
v 0 0 2.9
v 0.1 0 2.9
v 0.1 0 3
v 0 0 3
v 0 2.6 2.9
v 0.1 2.6 2.9
v 0.1 2.6 3
v 0 2.6 3
v 3.9 0 2.9
v 4 0 2.9
v 4 0 3
v 3.9 0 3
v 3.9 2.6 2.9
v 4 2.6 2.9
v 4 2.6 3
v 3.9 2.6 3
v 0 2.45 0
v 4 2.45 0
v 4 2.45 0.1
v 0 2.45 0.1
v 0 2.55 0
v 4 2.55 0
v 4 2.55 0.1
v 0 2.55 0.1
v 0 2.45 2.9
v 4 2.45 2.9
v 4 2.45 3
v 0 2.45 3
v 0 2.55 2.9
v 4 2.55 2.9
v 4 2.55 3
v 0 2.55 3
v 0 2.45 0
v 0.1 2.45 0
v 0.1 2.45 3
v 0 2.45 3
v 0 2.55 0
v 0.1 2.55 0
v 0.1 2.55 3
v 0 2.55 3
v 3.9 2.45 0
v 4 2.45 0
v 4 2.45 3
v 3.9 2.45 3
v 3.9 2.55 0
v 4 2.55 0
v 4 2.55 3
v 3.9 2.55 3
v 0 0 0
v 0.3 0 0
v 0.3 0 0.3
v 0 0 0.3
v 0 0.3 0
v 0.3 0.3 0
v 0.3 0.3 0.3
v 0 0.3 0.3
g counterBase
usemtl mat_8a8f98
f 1 2 3 4
f 5 6 7 8
f 1 2 6 5
f 2 3 7 6
f 3 4 8 7
f 4 1 5 8
g counterTop
usemtl mat_a3a58a
f 9 10 11 12
f 13 14 15 16
f 9 10 14 13
f 10 11 15 14
f 11 12 16 15
f 12 9 13 16
g postFrontLeft
usemtl mat_cbd5e0
f 17 18 19 20
f 21 22 23 24
f 17 18 22 21
f 18 19 23 22
f 19 20 24 23
f 20 17 21 24
g postFrontRight
usemtl mat_cbd5e0
f 25 26 27 28
f 29 30 31 32
f 25 26 30 29
f 26 27 31 30
f 27 28 32 31
f 28 25 29 32
g postBackLeft
usemtl mat_cbd5e0
f 33 34 35 36
f 37 38 39 40
f 33 34 38 37
f 34 35 39 38
f 35 36 40 39
f 36 33 37 40
g postBackRight
usemtl mat_cbd5e0
f 41 42 43 44
f 45 46 47 48
f 41 42 46 45
f 42 43 47 46
f 43 44 48 47
f 44 41 45 48
g railFront
usemtl mat_ACCENT
f 49 50 51 52
f 53 54 55 56
f 49 50 54 53
f 50 51 55 54
f 51 52 56 55
f 52 49 53 56
g railBack
usemtl mat_ACCENT
f 57 58 59 60
f 61 62 63 64
f 57 58 62 61
f 58 59 63 62
f 59 60 64 63
f 60 57 61 64
g railLeft
usemtl mat_ACCENT
f 65 66 67 68
f 69 70 71 72
f 65 66 70 69
f 66 67 71 70
f 67 68 72 71
f 68 65 69 72
g railRight
usemtl mat_ACCENT
f 73 74 75 76
f 77 78 79 80
f 73 74 78 77
f 74 75 79 78
f 75 76 80 79
f 76 73 77 80
g frontMarker
usemtl mat_MARKER
f 81 82 83 84
f 85 86 87 88
f 81 82 86 85
f 82 83 87 86
f 83 84 88 87
f 84 81 85 88
